<svg width="31" height="36" viewBox="0 0 31 36" fill="none" xmlns="http://www.w3.org/2000/svg">
<path d="M0.650444 16.4109C-0.214512 17.2898 -0.214512 18.7172 0.650444 19.5961L11.7219 30.8461C12.5868 31.725 13.9915 31.725 14.8565 30.8461C15.7214 29.9672 15.7214 28.5398 14.8565 27.6609L7.55625 20.25L28.7857 20.25C30.0105 20.25 31 19.2445 31 18C31 16.7555 30.0105 15.75 28.7857 15.75L7.56317 15.75L14.8496 8.33906C15.7145 7.46015 15.7145 6.0328 14.8496 5.1539C13.9846 4.27499 12.5799 4.27499 11.715 5.1539L0.643524 16.4039L0.650444 16.4109Z" fill="black"/>
</svg>
