<svg width="30" height="34" viewBox="0 0 30 34" fill="none" xmlns="http://www.w3.org/2000/svg">
<path d="M26.7857 2.125H3.21429C2.3618 2.125 1.54424 2.46083 0.941442 3.0586C0.338647 3.65637 0 4.46712 0 5.3125L0 28.6875C0 29.5329 0.338647 30.3436 0.941442 30.9414C1.54424 31.5392 2.3618 31.875 3.21429 31.875H12.4051V21.7607H8.18638V17H12.4051V13.3716C12.4051 9.24441 14.8828 6.96469 18.6777 6.96469C20.4951 6.96469 22.3955 7.28609 22.3955 7.28609V11.3369H20.3016C18.2384 11.3369 17.5949 12.6066 17.5949 13.9088V17H22.2007L21.4641 21.7607H17.5949V31.875H26.7857C27.6382 31.875 28.4558 31.5392 29.0586 30.9414C29.6614 30.3436 30 29.5329 30 28.6875V5.3125C30 4.46712 29.6614 3.65637 29.0586 3.0586C28.4558 2.46083 27.6382 2.125 26.7857 2.125Z" fill="#161616"/>
</svg>
