<svg width="30" height="34" viewBox="0 0 30 34" fill="none" xmlns="http://www.w3.org/2000/svg">
<g clip-path="url(#clip0_233_754)">
<path d="M15.0059 9.36337C10.7469 9.36337 7.31166 12.77 7.31166 16.9934C7.31166 21.2169 10.7469 24.6235 15.0059 24.6235C19.2648 24.6235 22.7001 21.2169 22.7001 16.9934C22.7001 12.77 19.2648 9.36337 15.0059 9.36337ZM15.0059 21.954C12.2536 21.954 10.0036 19.7294 10.0036 16.9934C10.0036 14.2575 12.2469 12.0329 15.0059 12.0329C17.7648 12.0329 20.0081 14.2575 20.0081 16.9934C20.0081 19.7294 17.7581 21.954 15.0059 21.954ZM24.8094 9.05126C24.8094 10.0407 24.0059 10.8309 23.0148 10.8309C22.017 10.8309 21.2201 10.0341 21.2201 9.05126C21.2201 8.06844 22.0237 7.27157 23.0148 7.27157C24.0059 7.27157 24.8094 8.06844 24.8094 9.05126ZM29.9054 10.8575C29.7916 8.47352 29.2425 6.3618 27.4813 4.62196C25.7268 2.88212 23.5974 2.33759 21.1934 2.21805C18.7157 2.0786 11.2893 2.0786 8.81166 2.21805C6.41434 2.33094 4.28488 2.87548 2.52372 4.61532C0.762556 6.35516 0.220145 8.46688 0.0996094 10.8509C-0.0410156 13.3079 -0.0410156 20.6723 0.0996094 23.1294C0.213449 25.5134 0.762556 27.6251 2.52372 29.3649C4.28488 31.1048 6.40764 31.6493 8.81166 31.7688C11.2893 31.9083 18.7157 31.9083 21.1934 31.7688C23.5974 31.6559 25.7268 31.1114 27.4813 29.3649C29.2358 27.6251 29.7849 25.5134 29.9054 23.1294C30.046 20.6723 30.046 13.3145 29.9054 10.8575ZM26.7045 25.7657C26.1822 27.0673 25.171 28.07 23.8518 28.5946C21.8764 29.3716 17.1889 29.1923 15.0059 29.1923C12.8228 29.1923 8.12863 29.3649 6.15988 28.5946C4.84738 28.0766 3.83622 27.0739 3.3072 25.7657C2.52372 23.8067 2.70452 19.1583 2.70452 16.9934C2.70452 14.8286 2.53041 10.1735 3.3072 8.22118C3.82952 6.91962 4.84068 5.91688 6.15988 5.39227C8.13532 4.61532 12.8228 4.79462 15.0059 4.79462C17.1889 4.79462 21.8831 4.62196 23.8518 5.39227C25.1643 5.91024 26.1755 6.91298 26.7045 8.22118C27.488 10.1802 27.3072 14.8286 27.3072 16.9934C27.3072 19.1583 27.488 23.8134 26.7045 25.7657Z" fill="#161616"/>
</g>
<defs>
<clipPath id="clip0_233_754">
<rect width="30" height="34" fill="white"/>
</clipPath>
</defs>
</svg>
