<svg width="145" height="89" viewBox="0 0 145 89" fill="none" xmlns="http://www.w3.org/2000/svg">
<path d="M10.1761 4.90909H11.7614V13.5767C11.7614 14.4716 11.5504 15.2706 11.1286 15.9737C10.7109 16.6726 10.1207 17.2244 9.35795 17.6293C8.59517 18.0298 7.70028 18.2301 6.6733 18.2301C5.64631 18.2301 4.75142 18.0298 3.98864 17.6293C3.22585 17.2244 2.63352 16.6726 2.21165 15.9737C1.79403 15.2706 1.58523 14.4716 1.58523 13.5767V4.90909H3.17045V13.4489C3.17045 14.0881 3.31108 14.657 3.59233 15.1555C3.87358 15.6499 4.27415 16.0398 4.79403 16.3253C5.31818 16.6065 5.9446 16.7472 6.6733 16.7472C7.40199 16.7472 8.02841 16.6065 8.55256 16.3253C9.07671 16.0398 9.47727 15.6499 9.75426 15.1555C10.0355 14.657 10.1761 14.0881 10.1761 13.4489V4.90909ZM18.9668 18H14.927V4.90909H19.1458C20.4157 4.90909 21.5023 5.17116 22.4057 5.69531C23.3091 6.2152 24.0016 6.96307 24.4831 7.93892C24.9647 8.91051 25.2054 10.0739 25.2054 11.429C25.2054 12.7926 24.9625 13.9666 24.4767 14.951C23.9909 15.9311 23.2836 16.6854 22.3546 17.2138C21.4256 17.7379 20.2963 18 18.9668 18ZM16.5123 16.5938H18.8645C19.9469 16.5938 20.8439 16.3849 21.5556 15.9673C22.2672 15.5497 22.7978 14.9553 23.1472 14.1839C23.4966 13.4126 23.6713 12.4943 23.6713 11.429C23.6713 10.3722 23.4988 9.46236 23.1536 8.69957C22.8084 7.93253 22.2928 7.34446 21.6067 6.93537C20.9206 6.52202 20.0662 6.31534 19.0435 6.31534H16.5123V16.5938ZM27.8645 18V4.90909H35.7651V6.31534H29.4498V10.7386H35.356V12.1449H29.4498V16.5938H35.8674V18H27.8645ZM45.7814 8.18182C45.7047 7.53409 45.3936 7.03125 44.8482 6.6733C44.3027 6.31534 43.6337 6.13636 42.8411 6.13636C42.2615 6.13636 41.7544 6.23011 41.3198 6.41761C40.8894 6.60511 40.5527 6.86293 40.3098 7.19105C40.0712 7.51918 39.9519 7.89204 39.9519 8.30966C39.9519 8.65909 40.035 8.95952 40.2012 9.21094C40.3716 9.4581 40.589 9.66477 40.8532 9.83097C41.1174 9.9929 41.3944 10.1271 41.6841 10.2337C41.9739 10.3359 42.2402 10.419 42.4831 10.483L43.8127 10.8409C44.1536 10.9304 44.5328 11.054 44.9505 11.2116C45.3723 11.3693 45.775 11.5845 46.1586 11.8572C46.5463 12.1257 46.8659 12.4709 47.1174 12.8928C47.3688 13.3146 47.4945 13.8324 47.4945 14.446C47.4945 15.1534 47.3091 15.7926 46.9384 16.3636C46.5719 16.9347 46.035 17.3885 45.3276 17.7251C44.6245 18.0618 43.7701 18.2301 42.7644 18.2301C41.8269 18.2301 41.0151 18.0788 40.329 17.7763C39.6472 17.4737 39.1103 17.0518 38.7182 16.5107C38.3304 15.9695 38.111 15.3409 38.0598 14.625H39.6962C39.7388 15.1193 39.905 15.5284 40.1948 15.8523C40.4888 16.1719 40.8596 16.4105 41.307 16.5682C41.7587 16.7216 42.2445 16.7983 42.7644 16.7983C43.3695 16.7983 43.9128 16.7003 44.3944 16.5043C44.8759 16.304 45.2573 16.027 45.5385 15.6733C45.8198 15.3153 45.9604 14.8977 45.9604 14.4205C45.9604 13.9858 45.839 13.6321 45.5961 13.3594C45.3532 13.0866 45.0336 12.8651 44.6373 12.6946C44.2409 12.5241 43.8127 12.375 43.3525 12.2472L41.7417 11.7869C40.7189 11.4929 39.9093 11.0732 39.3127 10.5277C38.7161 9.98224 38.4178 9.26847 38.4178 8.38636C38.4178 7.65341 38.6159 7.0142 39.0123 6.46875C39.4128 5.91903 39.9498 5.4929 40.623 5.19034C41.3006 4.88352 42.057 4.73011 42.8922 4.73011C43.736 4.73011 44.486 4.88139 45.1422 5.18395C45.7985 5.48224 46.3184 5.89133 46.7019 6.41122C47.0897 6.93111 47.2942 7.52131 47.3155 8.18182H45.7814ZM3.66264 26.9091V40H1.29119V26.9091H3.66264ZM16.9885 26.9091V40H14.8791L8.71076 31.0831H8.6021V40H6.23065V26.9091H8.35281L14.5147 35.8324H14.6298V26.9091H16.9885ZM28.3423 31.0895C28.2358 30.7443 28.0888 30.4354 27.9013 30.1626C27.718 29.8857 27.4964 29.6491 27.2365 29.4531C26.9808 29.2571 26.6868 29.1101 26.3544 29.0121C26.022 28.9098 25.6598 28.8587 25.2678 28.8587C24.5646 28.8587 23.9382 29.0355 23.3885 29.3892C22.8388 29.7429 22.4063 30.2628 22.0909 30.9489C21.7798 31.6307 21.6243 32.4616 21.6243 33.4418C21.6243 34.4304 21.7798 35.2678 22.0909 35.9538C22.402 36.6399 22.8345 37.1619 23.3885 37.5199C23.9425 37.8736 24.5859 38.0504 25.3189 38.0504C25.9837 38.0504 26.5589 37.9226 27.0447 37.6669C27.5348 37.4112 27.9119 37.049 28.1761 36.5803C28.4403 36.1072 28.5724 35.5533 28.5724 34.9183L29.1094 35.0014H25.5554V33.1477H30.8672V34.7202C30.8672 35.8409 30.6286 36.8104 30.1513 37.6286C29.674 38.4467 29.0178 39.0774 28.1825 39.5206C27.3473 39.9595 26.3885 40.179 25.3061 40.179C24.1001 40.179 23.0412 39.9084 22.1293 39.3672C21.2216 38.8217 20.5121 38.0483 20.0007 37.0469C19.4936 36.0412 19.2401 34.848 19.2401 33.4673C19.2401 32.4105 19.3892 31.4666 19.6875 30.6357C19.9901 29.8047 20.4119 29.0994 20.9531 28.5199C21.4943 27.9361 22.1293 27.4929 22.858 27.1903C23.5866 26.8835 24.3793 26.7301 25.2358 26.7301C25.9602 26.7301 26.6357 26.8366 27.2621 27.0497C27.8885 27.2585 28.4446 27.5568 28.9304 27.9446C29.4205 28.3324 29.8232 28.7926 30.1385 29.3253C30.4538 29.858 30.6605 30.446 30.7585 31.0895H28.3423ZM33.1603 40V26.9091H41.6745V28.897H35.5318V32.451H41.2335V34.4389H35.5318V38.0121H41.7257V40H33.1603ZM54.8517 26.9091V40H52.7424L46.574 31.0831H46.4654V40H44.0939V26.9091H46.2161L52.378 35.8324H52.4931V26.9091H54.8517ZM59.8072 26.9091V40H57.4357V26.9091H59.8072ZM62.3752 40V26.9091H70.8894V28.897H64.7466V32.451H70.4483V34.4389H64.7466V38.0121H70.9405V40H62.3752ZM73.3088 40V26.9091H78.2179C79.2235 26.9091 80.0673 27.0838 80.7491 27.4332C81.4352 27.7827 81.9529 28.2727 82.3024 28.9034C82.6561 29.5298 82.8329 30.2607 82.8329 31.0959C82.8329 31.9354 82.6539 32.6641 82.296 33.282C81.9423 33.8956 81.4203 34.3707 80.7299 34.7074C80.0396 35.0398 79.1916 35.206 78.1859 35.206H74.6895V33.2372H77.8663C78.4544 33.2372 78.9359 33.1562 79.3109 32.9943C79.6859 32.8281 79.9629 32.5874 80.1419 32.272C80.3251 31.9524 80.4167 31.5604 80.4167 31.0959C80.4167 30.6314 80.3251 30.2351 80.1419 29.907C79.9586 29.5746 79.6795 29.3232 79.3045 29.1527C78.9295 28.978 78.4458 28.8906 77.8535 28.8906H75.6802V40H73.3088ZM80.0716 34.0682L83.3123 40H80.666L77.4828 34.0682H80.0716ZM87.3873 26.9091V40H85.0158V26.9091H87.3873ZM91.6364 40H89.1051L93.7138 26.9091H96.6413L101.256 40H98.7251L95.2287 29.5938H95.1264L91.6364 40ZM91.7195 34.8672H98.6229V36.772H91.7195V34.8672ZM5.72727 62H1.29119V48.9091H5.81676C7.11648 48.9091 8.23296 49.1712 9.16619 49.6953C10.1037 50.2152 10.8239 50.9631 11.3267 51.9389C11.8295 52.9148 12.081 54.0824 12.081 55.4418C12.081 56.8054 11.8274 57.9773 11.3203 58.9574C10.8175 59.9375 10.0909 60.6896 9.14062 61.2138C8.1946 61.7379 7.05682 62 5.72727 62ZM3.66264 59.9482H5.61222C6.52415 59.9482 7.2848 59.782 7.89418 59.4496C8.50355 59.1129 8.96165 58.6122 9.26847 57.9474C9.57528 57.2784 9.72869 56.4432 9.72869 55.4418C9.72869 54.4403 9.57528 53.6094 9.26847 52.9489C8.96165 52.2841 8.50781 51.7876 7.90696 51.4595C7.31037 51.1271 6.56889 50.9609 5.68253 50.9609H3.66264V59.9482ZM14.3342 62V48.9091H22.8484V50.897H16.7056V54.451H22.4073V56.4389H16.7056V60.0121H22.8995V62H14.3342ZM36.8469 52.5078C36.7873 51.9496 36.5359 51.5149 36.0927 51.2038C35.6538 50.8928 35.0827 50.7372 34.3796 50.7372C33.8853 50.7372 33.4613 50.8118 33.1076 50.9609C32.7539 51.1101 32.4833 51.3125 32.2958 51.5682C32.1083 51.8239 32.0124 52.1158 32.0082 52.4439C32.0082 52.7166 32.07 52.9531 32.1935 53.1534C32.3214 53.3537 32.494 53.5241 32.7113 53.6648C32.9286 53.8011 33.1694 53.9162 33.4336 54.0099C33.6978 54.1037 33.9641 54.1825 34.2326 54.2464L35.4599 54.5533C35.9542 54.6683 36.4293 54.8239 36.8853 55.0199C37.3455 55.2159 37.7567 55.4631 38.119 55.7614C38.4854 56.0597 38.7752 56.4197 38.9883 56.8416C39.2013 57.2635 39.3079 57.7578 39.3079 58.3246C39.3079 59.0916 39.1119 59.767 38.7198 60.3509C38.3278 60.9304 37.761 61.3842 37.0195 61.7124C36.2823 62.0362 35.3896 62.1982 34.3413 62.1982C33.3228 62.1982 32.4386 62.0405 31.6886 61.7251C30.9428 61.4098 30.359 60.9496 29.9371 60.3445C29.5195 59.7393 29.2937 59.0021 29.2596 58.1328H31.5927C31.6268 58.5888 31.7674 58.968 32.0146 59.2706C32.2617 59.5732 32.5835 59.799 32.9798 59.9482C33.3803 60.0973 33.8278 60.1719 34.3221 60.1719C34.8377 60.1719 35.2894 60.0952 35.6772 59.9418C36.0692 59.7841 36.3761 59.5668 36.5977 59.2898C36.8192 59.0085 36.9322 58.6804 36.9364 58.3054C36.9322 57.9645 36.832 57.6832 36.636 57.4616C36.44 57.2358 36.1651 57.0483 35.8114 56.8991C35.462 56.7457 35.0529 56.6094 34.5842 56.4901L33.0948 56.1065C32.0167 55.8295 31.1644 55.4098 30.538 54.8473C29.9158 54.2805 29.6048 53.5284 29.6048 52.5909C29.6048 51.8196 29.8136 51.1442 30.2312 50.5646C30.6531 49.9851 31.2262 49.5355 31.9506 49.2159C32.6751 48.892 33.4954 48.7301 34.4116 48.7301C35.3406 48.7301 36.1545 48.892 36.8533 49.2159C37.5565 49.5355 38.1083 49.9808 38.5089 50.5518C38.9094 51.1186 39.1161 51.7706 39.1289 52.5078H36.8469ZM53.1195 55.4545C53.1195 56.8651 52.8553 58.0732 52.3269 59.0788C51.8027 60.0803 51.0868 60.8473 50.1792 61.38C49.2757 61.9126 48.2509 62.179 47.1046 62.179C45.9583 62.179 44.9313 61.9126 44.0236 61.38C43.1202 60.843 42.4043 60.0739 41.8759 59.0724C41.3517 58.0668 41.0897 56.8608 41.0897 55.4545C41.0897 54.044 41.3517 52.8381 41.8759 51.8366C42.4043 50.831 43.1202 50.0618 44.0236 49.5291C44.9313 48.9964 45.9583 48.7301 47.1046 48.7301C48.2509 48.7301 49.2757 48.9964 50.1792 49.5291C51.0868 50.0618 51.8027 50.831 52.3269 51.8366C52.8553 52.8381 53.1195 54.044 53.1195 55.4545ZM50.7353 55.4545C50.7353 54.4616 50.5797 53.6243 50.2686 52.9425C49.9618 52.2564 49.5357 51.7386 48.9902 51.3892C48.4448 51.0355 47.8162 50.8587 47.1046 50.8587C46.3929 50.8587 45.7644 51.0355 45.2189 51.3892C44.6735 51.7386 44.2452 52.2564 43.9341 52.9425C43.6273 53.6243 43.4739 54.4616 43.4739 55.4545C43.4739 56.4474 43.6273 57.2869 43.9341 57.973C44.2452 58.6548 44.6735 59.1726 45.2189 59.5263C45.7644 59.8757 46.3929 60.0504 47.1046 60.0504C47.8162 60.0504 48.4448 59.8757 48.9902 59.5263C49.5357 59.1726 49.9618 58.6548 50.2686 57.973C50.5797 57.2869 50.7353 56.4474 50.7353 55.4545ZM55.3615 62V48.9091H63.7479V50.897H57.733V54.451H63.1726V56.4389H57.733V62H55.3615ZM65.3331 50.897V48.9091H75.7777V50.897H71.7315V62H69.3793V50.897H65.3331ZM80.5462 62L76.8516 48.9091H79.402L81.7607 58.5291H81.8821L84.4006 48.9091H86.7209L89.2457 58.5355H89.3608L91.7195 48.9091H94.2699L90.5753 62H88.2358L85.6151 52.8146H85.5128L82.8857 62H80.5462ZM96.3649 62H93.8336L98.4423 48.9091H101.37L105.985 62H103.454L99.9572 51.5938H99.8549L96.3649 62ZM96.448 56.8672H103.351V58.772H96.448V56.8672ZM107.709 62V48.9091H112.618C113.624 48.9091 114.468 49.0838 115.15 49.4332C115.836 49.7827 116.353 50.2727 116.703 50.9034C117.056 51.5298 117.233 52.2607 117.233 53.0959C117.233 53.9354 117.054 54.6641 116.696 55.282C116.343 55.8956 115.821 56.3707 115.13 56.7074C114.44 57.0398 113.592 57.206 112.586 57.206H109.09V55.2372H112.267C112.855 55.2372 113.336 55.1562 113.711 54.9943C114.086 54.8281 114.363 54.5874 114.542 54.272C114.725 53.9524 114.817 53.5604 114.817 53.0959C114.817 52.6314 114.725 52.2351 114.542 51.907C114.359 51.5746 114.08 51.3232 113.705 51.1527C113.33 50.978 112.846 50.8906 112.254 50.8906H110.081V62H107.709ZM114.472 56.0682L117.713 62H115.066L111.883 56.0682H114.472ZM119.416 62V48.9091H127.93V50.897H121.788V54.451H127.489V56.4389H121.788V60.0121H127.982V62H119.416Z" fill="#161616"/>
<rect x="1" y="76" width="35" height="13" fill="#161616"/>
</svg>
