<svg width="152" height="114" viewBox="0 0 152 114" fill="none" xmlns="http://www.w3.org/2000/svg">
<path d="M28.2645 114C43.8745 114 56.5289 101.311 56.5289 85.6575C56.5289 70.0043 43.8745 57.3149 28.2645 57.3149C12.6544 57.3149 0 70.0043 0 85.6575C0 101.311 12.6544 114 28.2645 114Z" fill="#F2F2F2"/>
<path d="M123.735 114C139.345 114 152 101.311 152 85.6575C152 70.0043 139.345 57.3149 123.735 57.3149C108.125 57.3149 95.4707 70.0043 95.4707 85.6575C95.4707 101.311 108.125 114 123.735 114Z" fill="#F2F2F2"/>
<path d="M11.8991 82.2721H10.7754V89.4364H11.6587V86.5776L11.5851 83.6892L12.7971 87.4436H13.3172L14.6373 83.5859L14.5636 86.5776V89.4364H15.4469V82.2721H14.3183L13.0621 85.8539L11.8991 82.2721ZM16.6835 86.725V86.8333C16.6835 87.2175 16.7391 87.5734 16.8503 87.9009C16.9615 88.229 17.1218 88.5144 17.3312 88.7575C17.5373 89 17.7892 89.1902 18.0869 89.3281C18.3878 89.466 18.7264 89.5347 19.1027 89.5347C19.4756 89.5347 19.8109 89.466 20.1086 89.3281C20.4063 89.1902 20.6598 89 20.8692 88.7575C21.0753 88.5144 21.2339 88.229 21.3452 87.9009C21.4564 87.5734 21.512 87.2175 21.512 86.8333V86.725C21.512 86.3414 21.4564 85.9856 21.3452 85.6574C21.2339 85.3261 21.0753 85.0389 20.8692 84.7964C20.6598 84.5533 20.4047 84.3631 20.1037 84.2258C19.806 84.0847 19.469 84.0142 19.0928 84.0142C18.7199 84.0142 18.3846 84.0847 18.0869 84.2258C17.7892 84.3631 17.5373 84.5533 17.3312 84.7964C17.1218 85.0389 16.9615 85.3261 16.8503 85.6574C16.7391 85.9856 16.6835 86.3414 16.6835 86.725ZM17.5913 86.8333V86.725C17.5913 86.4661 17.6224 86.2186 17.6845 85.9824C17.7467 85.7425 17.8415 85.5327 17.9691 85.3526C18.0934 85.1718 18.2488 85.0295 18.4353 84.9243C18.6217 84.816 18.8409 84.7618 19.0928 84.7618C19.3447 84.7618 19.5639 84.816 19.7504 84.9243C19.9401 85.0295 20.0988 85.1718 20.2263 85.3526C20.3506 85.5327 20.4439 85.7425 20.506 85.9824C20.5715 86.2186 20.6042 86.4661 20.6042 86.725V86.8333C20.6042 87.096 20.5731 87.3466 20.5109 87.586C20.4488 87.8228 20.3556 88.0306 20.2312 88.2114C20.1037 88.3915 19.945 88.5345 19.7553 88.6391C19.5688 88.7442 19.3513 88.7965 19.1027 88.7965C18.8507 88.7965 18.63 88.7442 18.4402 88.6391C18.2505 88.5345 18.0934 88.3915 17.9691 88.2114C17.8415 88.0306 17.7467 87.8228 17.6845 87.586C17.6224 87.3466 17.5913 87.096 17.5913 86.8333ZM22.8025 86.73V86.8333C22.8025 87.2137 22.8532 87.5696 22.9547 87.9009C23.056 88.229 23.1984 88.5144 23.3816 88.7575C23.5647 89 23.7856 89.1902 24.044 89.3281C24.3057 89.466 24.5969 89.5347 24.9175 89.5347C25.2446 89.5347 25.5308 89.4793 25.7762 89.3678C26.0216 89.2563 26.2325 89.0919 26.4092 88.8752L26.4485 89.4364H27.2827V81.8784H26.3749V84.639C26.2014 84.4355 25.9954 84.2812 25.7566 84.1761C25.521 84.0683 25.2446 84.0142 24.9273 84.0142C24.6034 84.0142 24.3106 84.0809 24.0489 84.2157C23.7872 84.3499 23.5647 84.537 23.3816 84.7769C23.1951 85.0163 23.0511 85.3035 22.9498 85.6379C22.8516 85.9692 22.8025 86.3332 22.8025 86.73ZM23.7103 86.8333V86.73C23.7103 86.4712 23.7382 86.2249 23.7938 85.9919C23.8494 85.7557 23.9361 85.5478 24.0538 85.3671C24.1683 85.1901 24.3155 85.049 24.4955 84.9438C24.6787 84.8393 24.8978 84.7864 25.153 84.7864C25.4507 84.7864 25.6993 84.8569 25.8989 84.998C26.0984 85.1359 26.2571 85.3129 26.3749 85.5296V87.9998C26.2571 88.2328 26.0984 88.418 25.8989 88.5559C25.6993 88.6932 25.4474 88.7625 25.1432 88.7625C24.8913 88.7625 24.6754 88.7115 24.4955 88.6101C24.3155 88.5049 24.1683 88.3638 24.0538 88.1868C23.9361 88.0092 23.8494 87.8045 23.7938 87.5715C23.7382 87.3385 23.7103 87.0928 23.7103 86.8333ZM31.3555 89.5347C31.8724 89.5347 32.3058 89.4314 32.6559 89.2248C33.0092 89.0151 33.2742 88.7757 33.4508 88.5062L32.8963 88.0735C32.7295 88.2901 32.5201 88.464 32.2682 88.595C32.0163 88.726 31.7284 88.7921 31.4046 88.7921C31.1592 88.7921 30.9351 88.7461 30.7323 88.6542C30.5295 88.5622 30.3561 88.4356 30.2122 88.275C30.0715 88.1245 29.9602 87.9507 29.8785 87.7535C29.7999 87.557 29.7493 87.329 29.7263 87.0695V87.0355H33.5195V86.6267C33.5195 86.2564 33.4721 85.9119 33.3772 85.5932C33.2856 85.2751 33.1449 84.998 32.9552 84.7618C32.7655 84.5288 32.5267 84.3467 32.2387 84.2157C31.9541 84.0809 31.6205 84.0142 31.2377 84.0142C30.9335 84.0142 30.6358 84.0765 30.3446 84.2012C30.0568 84.3253 29.7999 84.5042 29.5742 84.7372C29.3453 84.9734 29.1621 85.2619 29.0246 85.6033C28.8873 85.9415 28.8185 86.3251 28.8185 86.7546V86.9612C28.8185 87.3322 28.8807 87.6748 29.005 87.9897C29.1293 88.3046 29.3027 88.5767 29.5252 88.8066C29.7476 89.0365 30.0143 89.2147 30.325 89.3432C30.639 89.4711 30.9825 89.5347 31.3555 89.5347ZM31.2377 84.7618C31.47 84.7618 31.6695 84.8046 31.8364 84.8897C32.0065 84.9753 32.1472 85.0868 32.2584 85.2241C32.3696 85.362 32.4563 85.5264 32.5184 85.7166C32.5806 85.9037 32.6117 86.0788 32.6117 86.2432V86.2873H29.7558C29.7918 86.041 29.8539 85.825 29.9423 85.6379C30.0339 85.4477 30.1451 85.2865 30.2759 85.1554C30.4068 85.0276 30.554 84.9306 30.7175 84.8651C30.8812 84.7964 31.0545 84.7618 31.2377 84.7618ZM35.1878 81.8784V82.6707H36.9936V88.6491H35.1878V89.4364H39.6337V88.6491H37.9015V81.8784H35.1878ZM40.826 86.725V86.8333C40.826 87.2175 40.8816 87.5734 40.9929 87.9009C41.1041 88.229 41.2644 88.5144 41.4737 88.7575C41.6799 89 41.9317 89.1902 42.2295 89.3281C42.5304 89.466 42.869 89.5347 43.2452 89.5347C43.6181 89.5347 43.9535 89.466 44.2511 89.3281C44.5488 89.1902 44.8023 89 45.0118 88.7575C45.2178 88.5144 45.3765 88.229 45.4877 87.9009C45.599 87.5734 45.6546 87.2175 45.6546 86.8333V86.725C45.6546 86.3414 45.599 85.9856 45.4877 85.6574C45.3765 85.3261 45.2178 85.0389 45.0118 84.7964C44.8023 84.5533 44.5472 84.3631 44.2462 84.2258C43.9486 84.0847 43.6116 84.0142 43.2354 84.0142C42.8625 84.0142 42.5271 84.0847 42.2295 84.2258C41.9317 84.3631 41.6799 84.5533 41.4737 84.7964C41.2644 85.0389 41.1041 85.3261 40.9929 85.6574C40.8816 85.9856 40.826 86.3414 40.826 86.725ZM41.7338 86.8333V86.725C41.7338 86.4661 41.7649 86.2186 41.8271 85.9824C41.8892 85.7425 41.9841 85.5327 42.1117 85.3526C42.236 85.1718 42.3914 85.0295 42.5779 84.9243C42.7643 84.816 42.9835 84.7618 43.2354 84.7618C43.4873 84.7618 43.7064 84.816 43.8929 84.9243C44.0827 85.0295 44.2413 85.1718 44.3689 85.3526C44.4932 85.5327 44.5865 85.7425 44.6486 85.9824C44.714 86.2186 44.7468 86.4661 44.7468 86.725V86.8333C44.7468 87.096 44.7157 87.3466 44.6536 87.586C44.5914 87.8228 44.4982 88.0306 44.3738 88.2114C44.2462 88.3915 44.0876 88.5345 43.8978 88.6391C43.7114 88.7442 43.4938 88.7965 43.2452 88.7965C42.9933 88.7965 42.7725 88.7442 42.5828 88.6391C42.393 88.5345 42.236 88.3915 42.1117 88.2114C41.9841 88.0306 41.8892 87.8228 41.8271 87.586C41.7649 87.3466 41.7338 87.096 41.7338 86.8333Z" fill="#161616"/>
<path d="M121.852 0H29.521C28.4803 0 27.6367 0.845959 27.6367 1.8895V34.6409C27.6367 35.6844 28.4803 36.5304 29.521 36.5304H121.852C122.892 36.5304 123.736 35.6844 123.736 34.6409V1.8895C123.736 0.845959 122.892 0 121.852 0Z" fill="#F2F2F2"/>
<path d="M48.1925 19.889H47.2846C47.2552 20.1055 47.2045 20.3073 47.1326 20.4943C47.0606 20.6779 46.964 20.837 46.843 20.9715C46.722 21.1093 46.5731 21.2159 46.3965 21.2914C46.2231 21.3668 46.017 21.4046 45.7782 21.4046C45.559 21.4046 45.3677 21.3701 45.2041 21.3012C45.0405 21.229 44.8982 21.1306 44.7772 21.006C44.6561 20.8846 44.5563 20.7435 44.4778 20.5828C44.3993 20.4221 44.3355 20.2498 44.2864 20.0662C44.2374 19.8857 44.2014 19.702 44.1785 19.5151C44.1589 19.3248 44.1491 19.1411 44.1491 18.9639V17.9552C44.1491 17.7781 44.1589 17.596 44.1785 17.409C44.2014 17.2187 44.2374 17.0334 44.2864 16.853C44.3355 16.6726 44.3993 16.502 44.4778 16.3413C44.5596 16.1805 44.661 16.0394 44.7821 15.9181C44.8998 15.7967 45.0405 15.7016 45.2041 15.6327C45.3709 15.5605 45.5623 15.5244 45.7782 15.5244C46.017 15.5244 46.2231 15.5654 46.3965 15.6475C46.5731 15.7262 46.722 15.8361 46.843 15.9772C46.964 16.1182 47.0606 16.2822 47.1326 16.4692C47.2045 16.6562 47.2552 16.8579 47.2846 17.0744H48.1925C48.1532 16.7333 48.0714 16.4216 47.9471 16.1395C47.826 15.8574 47.6641 15.6147 47.4613 15.4113C47.2585 15.2111 47.0164 15.057 46.735 14.9488C46.4537 14.8372 46.1348 14.7815 45.7782 14.7815C45.4805 14.7815 45.2123 14.8241 44.9735 14.9094C44.7347 14.9914 44.522 15.1062 44.3355 15.2538C44.1458 15.4014 43.9822 15.577 43.8448 15.7803C43.7107 15.9804 43.5995 16.1986 43.5111 16.4348C43.4195 16.671 43.3508 16.9186 43.305 17.1777C43.2625 17.4369 43.2396 17.6994 43.2363 17.965V18.9639C43.2396 19.2296 43.2625 19.4921 43.305 19.7512C43.3508 20.0104 43.4195 20.2581 43.5111 20.4943C43.5995 20.7304 43.7107 20.9486 43.8448 21.1487C43.9822 21.3488 44.1458 21.5227 44.3355 21.6702C44.522 21.8179 44.7347 21.9343 44.9735 22.0196C45.2155 22.1016 45.4838 22.1426 45.7782 22.1426C46.1217 22.1426 46.4325 22.0885 46.7105 21.9802C46.9919 21.8687 47.2356 21.7129 47.4416 21.5128C47.6445 21.316 47.8097 21.0798 47.9373 20.8042C48.0648 20.5254 48.1499 20.2203 48.1925 19.889ZM49.3456 19.333V19.4412C49.3456 19.8251 49.4012 20.181 49.5124 20.509C49.6237 20.837 49.784 21.1225 49.9934 21.3652C50.1994 21.6079 50.4513 21.7982 50.749 21.9359C51.0499 22.0738 51.3886 22.1426 51.7648 22.1426C52.1377 22.1426 52.473 22.0738 52.7707 21.9359C53.0684 21.7982 53.3219 21.6079 53.5313 21.3652C53.7374 21.1225 53.8961 20.837 54.0073 20.509C54.1185 20.181 54.1741 19.8251 54.1741 19.4412V19.333C54.1741 18.9491 54.1185 18.5932 54.0073 18.2652C53.8961 17.9339 53.7374 17.6468 53.5313 17.4041C53.3219 17.1614 53.0668 16.9711 52.7658 16.8333C52.4681 16.6923 52.1312 16.6217 51.7549 16.6217C51.382 16.6217 51.0467 16.6923 50.749 16.8333C50.4513 16.9711 50.1994 17.1614 49.9934 17.4041C49.784 17.6468 49.6237 17.9339 49.5124 18.2652C49.4012 18.5932 49.3456 18.9491 49.3456 19.333ZM50.2534 19.4412V19.333C50.2534 19.0739 50.2845 18.8261 50.3466 18.59C50.4088 18.3505 50.5036 18.1406 50.6313 17.9601C50.7556 17.7797 50.9109 17.637 51.0974 17.532C51.2838 17.4238 51.5031 17.3697 51.7549 17.3697C52.0069 17.3697 52.226 17.4238 52.4125 17.532C52.6022 17.637 52.7609 17.7797 52.8885 17.9601C53.0128 18.1406 53.106 18.3505 53.1681 18.59C53.2336 18.8261 53.2663 19.0739 53.2663 19.333V19.4412C53.2663 19.7037 53.2352 19.9546 53.173 20.1941C53.1109 20.4303 53.0177 20.6386 52.8934 20.819C52.7658 20.9994 52.6071 21.1421 52.4174 21.2471C52.2309 21.352 52.0134 21.4046 51.7648 21.4046C51.5129 21.4046 51.2921 21.352 51.1023 21.2471C50.9126 21.1421 50.7556 20.9994 50.6313 20.819C50.5036 20.6386 50.4088 20.4303 50.3466 20.1941C50.2845 19.9546 50.2534 19.7037 50.2534 19.4412ZM55.6364 22.0442H56.5442V18.2258C56.6064 18.111 56.6783 18.006 56.7601 17.9109C56.8452 17.8158 56.9367 17.7321 57.0349 17.66C57.156 17.578 57.2884 17.514 57.4324 17.4681C57.5763 17.4188 57.7317 17.3943 57.8986 17.3943C58.0916 17.3943 58.2617 17.4172 58.4089 17.4632C58.5594 17.5091 58.6869 17.5829 58.7916 17.6846C58.893 17.7863 58.9699 17.9191 59.0223 18.0831C59.0746 18.2472 59.1008 18.4473 59.1008 18.6835V22.0442H60.0086V18.6638C60.0086 18.3095 59.9644 18.0044 59.8761 17.7486C59.791 17.4894 59.6683 17.2762 59.5081 17.1089C59.3478 16.9416 59.1531 16.8185 58.9241 16.7398C58.6984 16.6611 58.4465 16.6217 58.1684 16.6217C57.9623 16.625 57.7661 16.6562 57.5796 16.7153C57.3964 16.771 57.2263 16.8514 57.0693 16.9564C56.9646 17.0252 56.8648 17.1073 56.7699 17.2024C56.6783 17.2942 56.5933 17.3959 56.5148 17.5075L56.451 16.7202H55.6364V22.0442ZM63.8211 15.431H62.9085V16.7202H61.515V17.4238H62.9085V20.3171C62.9085 20.6451 62.9512 20.9256 63.036 21.1585C63.1245 21.3881 63.2439 21.5751 63.3946 21.7195C63.5447 21.8671 63.7218 21.9753 63.9241 22.0442C64.1307 22.1098 64.3512 22.1426 64.5867 22.1426C64.7274 22.1426 64.8681 22.136 65.0088 22.1229C65.1527 22.1098 65.2883 22.0901 65.4158 22.0639C65.544 22.0409 65.6614 22.013 65.7694 21.9802C65.8775 21.9441 65.9692 21.9031 66.0439 21.8572L65.9164 21.2126C65.8612 21.2257 65.7889 21.2422 65.701 21.2618C65.6156 21.2783 65.5239 21.2947 65.4259 21.311C65.3248 21.3275 65.2217 21.3422 65.1169 21.3553C65.012 21.3652 64.9108 21.3701 64.8129 21.3701C64.6784 21.3701 64.5509 21.3537 64.4297 21.3209C64.3123 21.2881 64.2074 21.2307 64.1157 21.1487C64.024 21.0699 63.9524 20.9634 63.8996 20.8288C63.8475 20.6944 63.8211 20.5237 63.8211 20.3171V17.4238H65.8429V16.7202H63.8211V15.431ZM71.1868 16.6217C70.8005 16.6217 70.4557 16.707 70.1517 16.8776C69.8502 17.0449 69.5921 17.2745 69.376 17.5665L69.371 17.4336L69.332 16.7202H68.4684V22.0442H69.381V18.6293C69.4401 18.4653 69.5135 18.3177 69.6015 18.1865C69.6932 18.052 69.8 17.9388 69.9206 17.8469C70.055 17.742 70.212 17.6633 70.3916 17.6108C70.5719 17.555 70.7729 17.5271 70.9952 17.5271C71.1686 17.5271 71.3338 17.537 71.4908 17.5566C71.6516 17.573 71.8199 17.6009 71.9964 17.6403L72.1189 16.7497C72.0272 16.7103 71.8903 16.6792 71.7069 16.6562C71.5272 16.6332 71.3539 16.6217 71.1868 16.6217ZM73.4882 19.333V19.4412C73.4882 19.8251 73.5441 20.181 73.6552 20.509C73.7664 20.837 73.9266 21.1225 74.1357 21.3652C74.3417 21.6079 74.5936 21.7982 74.8913 21.9359C75.1928 22.0738 75.5314 22.1426 75.9076 22.1426C76.2801 22.1426 76.6155 22.0738 76.9132 21.9359C77.2109 21.7982 77.4647 21.6079 77.6738 21.3652C77.8798 21.1225 78.0387 20.837 78.1499 20.509C78.2611 20.181 78.317 19.8251 78.317 19.4412V19.333C78.317 18.9491 78.2611 18.5932 78.1499 18.2652C78.0387 17.9339 77.8798 17.6468 77.6738 17.4041C77.4647 17.1614 77.209 16.9711 76.9082 16.8333C76.6104 16.6923 76.2738 16.6217 75.8975 16.6217C75.5245 16.6217 75.1891 16.6923 74.8913 16.8333C74.5936 16.9711 74.3417 17.1614 74.1357 17.4041C73.9266 17.6468 73.7664 17.9339 73.6552 18.2652C73.5441 18.5932 73.4882 18.9491 73.4882 19.333ZM74.3958 19.4412V19.333C74.3958 19.0739 74.4272 18.8261 74.4894 18.59C74.5515 18.3505 74.6464 18.1406 74.7739 17.9601C74.8982 17.7797 75.0534 17.637 75.2399 17.532C75.4265 17.4238 75.6457 17.3697 75.8975 17.3697C76.1494 17.3697 76.3686 17.4238 76.5552 17.532C76.7449 17.637 76.9038 17.7797 77.0313 17.9601C77.1556 18.1406 77.2486 18.3505 77.3108 18.59C77.3761 18.8261 77.4088 19.0739 77.4088 19.333V19.4412C77.4088 19.7037 77.378 19.9546 77.3158 20.1941C77.2536 20.4303 77.16 20.6386 77.0357 20.819C76.9082 20.9994 76.7499 21.1421 76.5602 21.2471C76.3736 21.352 76.1557 21.4046 75.9076 21.4046C75.6557 21.4046 75.4346 21.352 75.245 21.2471C75.0553 21.1421 74.8982 20.9994 74.7739 20.819C74.6464 20.6386 74.5515 20.4303 74.4894 20.1941C74.4272 19.9546 74.3958 19.7037 74.3958 19.4412ZM79.9212 14.4862V15.2784H81.7269V21.2569H79.9212V22.0442H84.3668V21.2569H82.6345V14.4862H79.9212ZM89.3037 22.0442H90.2509V21.9655C90.1918 21.8179 90.146 21.6457 90.1133 21.4488C90.0807 21.2487 90.0643 21.0601 90.0643 20.8829V18.4079C90.0643 18.1094 90.0103 17.8486 89.9023 17.6256C89.7942 17.4025 89.6473 17.2155 89.4607 17.0646C89.271 16.917 89.0468 16.8071 88.788 16.7349C88.5299 16.6594 88.2504 16.6217 87.9489 16.6217C87.6185 16.6217 87.3227 16.6676 87.0608 16.7595C86.8026 16.8514 86.5834 16.9711 86.4031 17.1187C86.2204 17.2696 86.0797 17.4386 85.9817 17.6256C85.8868 17.8125 85.8372 18.0028 85.8341 18.1963H86.7467C86.7467 18.0848 86.7731 17.9782 86.8252 17.8765C86.8811 17.7715 86.9578 17.6813 87.0564 17.6058C87.1543 17.5304 87.2737 17.4697 87.4144 17.4238C87.5582 17.3778 87.7203 17.3549 87.8999 17.3549C88.0934 17.3549 88.2667 17.3795 88.42 17.4287C88.577 17.4779 88.7095 17.5468 88.8176 17.6354C88.9256 17.7272 89.0091 17.8371 89.0682 17.965C89.1266 18.093 89.1561 18.2373 89.1561 18.398V18.8163H88.165C87.7956 18.8163 87.4602 18.8524 87.1594 18.9246C86.8617 18.9968 86.606 19.105 86.3937 19.2493C86.1808 19.397 86.0156 19.5806 85.8981 19.8004C85.7838 20.0202 85.726 20.2761 85.726 20.568C85.726 20.7911 85.7688 20.9994 85.8542 21.1929C85.9421 21.3832 86.0665 21.5472 86.2266 21.685C86.3837 21.826 86.5752 21.9376 86.8007 22.0196C87.03 22.1016 87.285 22.1426 87.5664 22.1426C87.7397 22.1426 87.9037 22.1246 88.0569 22.0885C88.2108 22.0524 88.3565 22.0032 88.4941 21.9409C88.6279 21.8786 88.7503 21.8064 88.8621 21.7244C88.9765 21.6424 89.0795 21.5555 89.1712 21.4636C89.1806 21.5751 89.1957 21.6834 89.2151 21.7884C89.2384 21.89 89.2673 21.9753 89.3037 22.0442ZM87.6989 21.3504C87.5224 21.3504 87.3666 21.3275 87.2329 21.2816C87.0984 21.2356 86.9873 21.1716 86.8993 21.0896C86.8108 21.0109 86.7436 20.9157 86.6977 20.8042C86.6556 20.6927 86.6343 20.5713 86.6343 20.4401C86.6343 20.3023 86.6588 20.1793 86.7078 20.0711C86.7599 19.9628 86.8353 19.8693 86.9333 19.7906C87.0708 19.6791 87.2555 19.5971 87.4879 19.5445C87.7234 19.4888 87.9985 19.4609 88.3126 19.4609H89.1561V20.5385C89.104 20.6435 89.0317 20.7452 88.9407 20.8436C88.849 20.9387 88.7409 21.024 88.6166 21.0995C88.4891 21.1749 88.3484 21.2356 88.1945 21.2816C88.0406 21.3275 87.8754 21.3504 87.6989 21.3504ZM91.6785 19.3379V19.4412C91.6785 19.8218 91.7294 20.1777 91.8305 20.509C91.9323 20.837 92.0742 21.1225 92.2576 21.3652C92.4404 21.6079 92.6615 21.7982 92.9203 21.9359C93.1816 22.0738 93.473 22.1426 93.7934 22.1426C94.1206 22.1426 94.407 22.0869 94.652 21.9753C94.8976 21.8638 95.1086 21.6998 95.2851 21.4833L95.3247 22.0442H96.1588V14.4862H95.2505V17.2466C95.0772 17.0433 94.8712 16.8891 94.6325 16.7841C94.397 16.6759 94.1206 16.6217 93.8034 16.6217C93.4793 16.6217 93.1866 16.689 92.9247 16.8235C92.6634 16.958 92.4404 17.145 92.2576 17.3845C92.0711 17.6239 91.9273 17.9109 91.8255 18.2456C91.7275 18.5769 91.6785 18.941 91.6785 19.3379ZM92.5862 19.4412V19.3379C92.5862 19.0788 92.6144 18.8327 92.6697 18.5998C92.7256 18.3636 92.8123 18.1553 92.9297 17.9749C93.044 17.7977 93.1916 17.6567 93.3713 17.5517C93.5547 17.4467 93.7739 17.3943 94.0289 17.3943C94.3266 17.3943 94.5753 17.4648 94.7751 17.6058C94.9742 17.7436 95.1331 17.9208 95.2505 18.1373V20.6074C95.1331 20.8403 94.9742 21.0257 94.7751 21.1635C94.5753 21.3012 94.3235 21.3701 94.0195 21.3701C93.767 21.3701 93.5515 21.3193 93.3713 21.2176C93.1916 21.1126 93.044 20.9715 92.9297 20.7944C92.8123 20.6173 92.7256 20.4123 92.6697 20.1793C92.6144 19.9464 92.5862 19.7004 92.5862 19.4412ZM97.631 19.333V19.4412C97.631 19.8251 97.6863 20.181 97.7975 20.509C97.9087 20.837 98.0688 21.1225 98.2786 21.3652C98.4846 21.6079 98.7365 21.7982 99.0342 21.9359C99.3351 22.0738 99.6736 22.1426 100.05 22.1426C100.423 22.1426 100.758 22.0738 101.056 21.9359C101.354 21.7982 101.607 21.6079 101.817 21.3652C102.023 21.1225 102.181 20.837 102.292 20.509C102.403 20.181 102.459 19.8251 102.459 19.4412V19.333C102.459 18.9491 102.403 18.5932 102.292 18.2652C102.181 17.9339 102.023 17.6468 101.817 17.4041C101.607 17.1614 101.352 16.9711 101.051 16.8333C100.753 16.6923 100.416 16.6217 100.04 16.6217C99.6673 16.6217 99.3319 16.6923 99.0342 16.8333C98.7365 16.9711 98.4846 17.1614 98.2786 17.4041C98.0688 17.6468 97.9087 17.9339 97.7975 18.2652C97.6863 18.5932 97.631 18.9491 97.631 19.333ZM98.5386 19.4412V19.333C98.5386 19.0739 98.5694 18.8261 98.6316 18.59C98.6938 18.3505 98.7886 18.1406 98.9161 17.9601C99.0405 17.7797 99.1963 17.637 99.3828 17.532C99.5687 17.4238 99.7879 17.3697 100.04 17.3697C100.292 17.3697 100.511 17.4238 100.697 17.532C100.887 17.637 101.046 17.7797 101.174 17.9601C101.298 18.1406 101.391 18.3505 101.453 18.59C101.519 18.8261 101.552 19.0739 101.552 19.333V19.4412C101.552 19.7037 101.52 19.9546 101.458 20.1941C101.396 20.4303 101.303 20.6386 101.179 20.819C101.051 20.9994 100.892 21.1421 100.702 21.2471C100.516 21.352 100.299 21.4046 100.05 21.4046C99.798 21.4046 99.5769 21.352 99.3872 21.2471C99.1975 21.1421 99.0405 20.9994 98.9161 20.819C98.7886 20.6386 98.6938 20.4303 98.6316 20.1941C98.5694 19.9546 98.5386 19.7037 98.5386 19.4412ZM107.4 16.6217C107.015 16.6217 106.669 16.707 106.365 16.8776C106.065 17.0449 105.806 17.2745 105.59 17.5665L105.585 17.4336L105.546 16.7202H104.682V22.0442H105.595V18.6293C105.654 18.4653 105.727 18.3177 105.816 18.1865C105.907 18.052 106.014 17.9388 106.135 17.8469C106.269 17.742 106.426 17.6633 106.606 17.6108C106.786 17.555 106.987 17.5271 107.21 17.5271C107.383 17.5271 107.548 17.537 107.705 17.5566C107.865 17.573 108.034 17.6009 108.21 17.6403L108.333 16.7497C108.242 16.7103 108.104 16.6792 107.921 16.6562C107.741 16.6332 107.568 16.6217 107.4 16.6217Z" fill="#161616"/>
<path d="M110.638 89.4365H111.428L113.68 82.2722H112.713L111.134 87.6113L111.026 87.9703L110.923 87.6207L109.353 82.2722H108.381L110.638 89.4365ZM115.064 84.1125V84.9049H116.87V88.6492H115.064V89.4365H119.51V88.6492H117.778V84.1125H115.064ZM116.752 82.7149C116.752 82.8623 116.796 82.9858 116.885 83.084C116.976 83.1823 117.113 83.2314 117.297 83.2314C117.476 83.2314 117.613 83.1823 117.704 83.084C117.795 82.9858 117.841 82.8623 117.841 82.7149C117.841 82.6331 117.828 82.5575 117.802 82.4888C117.776 82.4195 117.737 82.3622 117.684 82.3163C117.642 82.2741 117.588 82.2413 117.522 82.218C117.457 82.1915 117.382 82.179 117.297 82.179C117.212 82.179 117.135 82.1915 117.066 82.218C117.001 82.2413 116.947 82.2741 116.904 82.3163C116.852 82.3654 116.812 82.4246 116.787 82.4939C116.763 82.5625 116.752 82.6362 116.752 82.7149ZM124.485 88.0244C124.485 88.1095 124.469 88.1901 124.436 88.2657C124.404 88.3406 124.357 88.4099 124.294 88.4723C124.193 88.5737 124.052 88.6543 123.872 88.7135C123.692 88.7689 123.481 88.7966 123.239 88.7966C123.085 88.7966 122.93 88.7802 122.773 88.7475C122.616 88.7147 122.474 88.6593 122.346 88.5806C122.215 88.5019 122.105 88.3986 122.018 88.2701C121.932 88.1422 121.883 87.9848 121.87 87.7977H120.962C120.962 88.0244 121.013 88.2424 121.114 88.4527C121.219 88.6625 121.369 88.8457 121.566 89.0032C121.759 89.1644 121.996 89.2936 122.278 89.3924C122.559 89.4875 122.879 89.5348 123.239 89.5348C123.553 89.5348 123.843 89.497 124.108 89.422C124.373 89.3465 124.6 89.24 124.79 89.1021C124.98 88.9642 125.127 88.7985 125.232 88.6051C125.34 88.4112 125.394 88.1964 125.394 87.9602C125.394 87.7404 125.346 87.547 125.251 87.3795C125.159 87.2126 125.025 87.0646 124.848 86.9367C124.672 86.812 124.455 86.7056 124.196 86.6168C123.938 86.5254 123.645 86.4448 123.318 86.3762C123.069 86.3264 122.863 86.276 122.7 86.2231C122.539 86.1708 122.411 86.1116 122.317 86.0461C122.219 85.9806 122.15 85.9069 122.11 85.8251C122.072 85.7426 122.051 85.6493 122.051 85.5442C122.051 85.4428 122.076 85.3445 122.126 85.2494C122.175 85.1543 122.248 85.0705 122.346 84.9981C122.441 84.9263 122.56 84.8683 122.704 84.8261C122.852 84.7833 123.022 84.7619 123.215 84.7619C123.401 84.7619 123.568 84.7884 123.715 84.8406C123.865 84.8929 123.993 84.9622 124.098 85.0472C124.203 85.1329 124.284 85.2311 124.343 85.3426C124.402 85.4509 124.431 85.5624 124.431 85.6771H125.34C125.34 85.444 125.289 85.228 125.187 85.0277C125.089 84.8243 124.948 84.6473 124.765 84.4961C124.582 84.3456 124.36 84.2272 124.098 84.1421C123.836 84.0565 123.542 84.0143 123.215 84.0143C122.911 84.0143 122.631 84.0552 122.376 84.1371C122.124 84.219 121.906 84.3305 121.723 84.4716C121.54 84.6126 121.398 84.7783 121.296 84.9685C121.195 85.1556 121.144 85.3571 121.144 85.5738C121.144 85.7936 121.193 85.9869 121.291 86.1545C121.389 86.3182 121.528 86.4612 121.708 86.5827C121.885 86.7075 122.097 86.8139 122.346 86.9027C122.598 86.9909 122.876 87.0665 123.18 87.1288C123.429 87.1779 123.637 87.234 123.803 87.2964C123.97 87.3549 124.105 87.4204 124.206 87.4929C124.307 87.5653 124.379 87.6453 124.422 87.7341C124.464 87.8191 124.485 87.9161 124.485 88.0244ZM129.142 82.8233H128.229V84.1125H126.836V84.8161H128.229V87.7095C128.229 88.0377 128.272 88.3179 128.357 88.551C128.445 88.7802 128.565 88.9673 128.716 89.1115C128.866 89.2595 129.043 89.3679 129.245 89.4365C129.452 89.502 129.672 89.5348 129.908 89.5348C130.048 89.5348 130.189 89.5285 130.33 89.5153C130.474 89.502 130.609 89.4825 130.737 89.4561C130.865 89.4334 130.982 89.4057 131.09 89.3723C131.198 89.3364 131.29 89.2955 131.365 89.2495L131.237 88.6051C131.182 88.6184 131.11 88.6348 131.022 88.6543C130.937 88.6707 130.845 88.687 130.747 88.7034C130.646 88.7198 130.543 88.7343 130.438 88.7475C130.333 88.7576 130.232 88.7626 130.134 88.7626C129.999 88.7626 129.872 88.7462 129.751 88.7135C129.633 88.6801 129.528 88.6228 129.437 88.5409C129.345 88.4622 129.273 88.3557 129.221 88.221C129.168 88.0868 129.142 87.9161 129.142 87.7095V84.8161H131.164V84.1125H129.142V82.8233ZM136.518 89.4365H137.464V89.3578C137.406 89.2104 137.36 89.0378 137.327 88.8413C137.295 88.641 137.278 88.4527 137.278 88.2751V85.8005C137.278 85.502 137.224 85.2412 137.116 85.0176C137.008 84.7946 136.861 84.6076 136.675 84.4571C136.485 84.309 136.261 84.1995 136.002 84.127C135.744 84.0521 135.464 84.0143 135.163 84.0143C134.833 84.0143 134.537 84.0603 134.275 84.1516C134.017 84.2435 133.798 84.3632 133.617 84.5112C133.434 84.6618 133.294 84.8312 133.195 85.0176C133.1 85.2047 133.051 85.3949 133.048 85.5889H133.961C133.961 85.4774 133.987 85.3703 134.039 85.2689C134.095 85.1637 134.172 85.0737 134.27 84.9981C134.368 84.9225 134.488 84.862 134.628 84.8161C134.772 84.7701 134.934 84.7474 135.114 84.7474C135.307 84.7474 135.481 84.772 135.634 84.8211C135.791 84.8702 135.924 84.9389 136.032 85.0277C136.14 85.1196 136.223 85.2292 136.282 85.3571C136.341 85.4856 136.37 85.6298 136.37 85.7904V86.2086H135.379C135.01 86.2086 134.674 86.2445 134.373 86.317C134.076 86.3888 133.82 86.4971 133.608 86.6413C133.395 86.7893 133.23 86.9733 133.112 87.1931C132.997 87.4122 132.94 87.6686 132.94 87.9602C132.94 88.1832 132.983 88.3916 133.068 88.585C133.156 88.7758 133.281 88.9396 133.441 89.0775C133.598 89.2186 133.789 89.3301 134.015 89.412C134.244 89.4938 134.499 89.5348 134.78 89.5348C134.954 89.5348 135.117 89.5172 135.271 89.4806C135.425 89.4447 135.571 89.3956 135.708 89.3332C135.842 89.2709 135.964 89.1985 136.076 89.1166C136.191 89.0347 136.294 88.9478 136.385 88.8558C136.395 88.9673 136.41 89.0756 136.429 89.1808C136.452 89.2822 136.481 89.3679 136.518 89.4365ZM134.913 88.7425C134.737 88.7425 134.581 88.7198 134.447 88.6738C134.313 88.6278 134.201 88.5642 134.113 88.4817C134.025 88.403 133.958 88.3079 133.912 88.1964C133.869 88.0849 133.848 87.9634 133.848 87.8323C133.848 87.6944 133.873 87.5716 133.922 87.4633C133.974 87.3549 134.049 87.2617 134.147 87.183C134.285 87.0715 134.47 86.9896 134.702 86.9367C134.938 86.8813 135.212 86.8529 135.526 86.8529H136.37V87.9306C136.318 88.0358 136.246 88.1378 136.154 88.2361C136.063 88.3312 135.955 88.4162 135.831 88.4918C135.703 88.5674 135.562 88.6278 135.409 88.6738C135.255 88.7198 135.09 88.7425 134.913 88.7425Z" fill="#161616"/>
<path d="M29.5879 65.8511L49.059 26.8013" stroke="#F2F2F2" stroke-width="2"/>
<path d="M89.7227 24.8582L117.359 68.9467" stroke="#F2F2F2" stroke-width="2"/>
<path d="M45.8574 84.3978L103.014 85.0277" stroke="#F2F2F2" stroke-width="2"/>
</svg>
