<svg width="19" height="19" viewBox="0 0 19 19" fill="none" xmlns="http://www.w3.org/2000/svg">
<path d="M17.2188 9.5C17.2188 7.45286 16.4055 5.48957 14.958 4.04202C13.5104 2.59447 11.5471 1.78125 9.5 1.78125C7.45286 1.78125 5.48957 2.59447 4.04202 4.04202C2.59447 5.48957 1.78125 7.45286 1.78125 9.5C1.78125 11.5471 2.59447 13.5104 4.04202 14.958C5.48957 16.4055 7.45286 17.2188 9.5 17.2188C11.5471 17.2188 13.5104 16.4055 14.958 14.958C16.4055 13.5104 17.2188 11.5471 17.2188 9.5ZM0 9.5C0 6.98044 1.00089 4.56408 2.78249 2.78249C4.56408 1.00089 6.98044 0 9.5 0C12.0196 0 14.4359 1.00089 16.2175 2.78249C17.9991 4.56408 19 6.98044 19 9.5C19 12.0196 17.9991 14.4359 16.2175 16.2175C14.4359 17.9991 12.0196 19 9.5 19C6.98044 19 4.56408 17.9991 2.78249 16.2175C1.00089 14.4359 0 12.0196 0 9.5ZM6.30117 6.13418C6.59434 5.30664 7.38105 4.75 8.26055 4.75H10.424C11.7191 4.75 12.7656 5.8002 12.7656 7.0916C12.7656 7.93027 12.3166 8.70586 11.5893 9.1252L10.3906 9.81172C10.3832 10.2941 9.98613 10.6875 9.5 10.6875C9.00644 10.6875 8.60938 10.2904 8.60938 9.79688V9.2959C8.60938 8.97676 8.78008 8.68359 9.0584 8.52402L10.7023 7.58145C10.8768 7.48125 10.9844 7.2957 10.9844 7.09531C10.9844 6.78359 10.732 6.53496 10.424 6.53496H8.26055C8.13437 6.53496 8.02305 6.61289 7.98223 6.73164L7.96738 6.77617C7.8041 7.24004 7.29199 7.48125 6.83184 7.31797C6.37168 7.15469 6.12676 6.64258 6.29004 6.18242L6.30488 6.13789L6.30117 6.13418ZM8.3125 13.0625C8.3125 12.7476 8.43761 12.4455 8.66031 12.2228C8.88301 12.0001 9.18506 11.875 9.5 11.875C9.81494 11.875 10.117 12.0001 10.3397 12.2228C10.5624 12.4455 10.6875 12.7476 10.6875 13.0625C10.6875 13.3774 10.5624 13.6795 10.3397 13.9022C10.117 14.1249 9.81494 14.25 9.5 14.25C9.18506 14.25 8.88301 14.1249 8.66031 13.9022C8.43761 13.6795 8.3125 13.3774 8.3125 13.0625Z" fill="#F2F2F2"/>
</svg>
