<svg width="112" height="69" viewBox="0 0 112 69" fill="none" xmlns="http://www.w3.org/2000/svg">
<path d="M7.86087 3.80593H9.08538V10.5258C9.08538 11.2196 8.9224 11.839 8.5966 12.3841C8.27396 12.926 7.81808 13.3538 7.22892 13.6677C6.63974 13.9782 5.94852 14.1335 5.15526 14.1335C4.362 14.1335 3.67078 13.9782 3.08159 13.6677C2.49241 13.3538 2.03488 12.926 1.70902 12.3841C1.38645 11.839 1.22517 11.2196 1.22517 10.5258V3.80593H2.44961V10.4267C2.44961 10.9222 2.55824 11.3633 2.77548 11.7498C2.99272 12.1331 3.30213 12.4354 3.70369 12.6567C4.10855 12.8747 4.5924 12.9838 5.15526 12.9838C5.71811 12.9838 6.20197 12.8747 6.60683 12.6567C7.01169 12.4354 7.32109 12.1331 7.53504 11.7498C7.75227 11.3633 7.86087 10.9222 7.86087 10.4267V3.80593ZM14.6509 13.9551H11.5305V3.80593H14.7892C15.7701 3.80593 16.6094 4.00911 17.3072 4.41548C18.005 4.81854 18.5399 5.39835 18.9118 6.1549C19.2838 6.90816 19.4697 7.81011 19.4697 8.8607C19.4697 9.91787 19.2821 10.828 18.9069 11.5912C18.5316 12.3511 17.9853 12.9359 17.2677 13.3455C16.5501 13.7519 15.6779 13.9551 14.6509 13.9551ZM12.755 12.8649H14.5719C15.408 12.8649 16.1008 12.7029 16.6506 12.3792C17.2002 12.0554 17.6101 11.5946 17.8799 10.9965C18.1498 10.3985 18.2848 9.6866 18.2848 8.8607C18.2848 8.04138 18.1515 7.336 17.8849 6.74462C17.6182 6.14995 17.22 5.69403 16.69 5.37687C16.1601 5.05641 15.5001 4.89617 14.7102 4.89617H12.755V12.8649ZM21.5236 13.9551V3.80593H27.6262V4.89617H22.7481V8.32544H27.3102V9.41572H22.7481V12.8649H27.7052V13.9551H21.5236ZM35.3629 6.34322C35.3037 5.84105 35.0634 5.4512 34.6421 5.17369C34.2207 4.89617 33.704 4.75741 33.0918 4.75741C32.6441 4.75741 32.2524 4.8301 31.9167 4.97546C31.5843 5.12083 31.3242 5.32071 31.1366 5.57509C30.9523 5.82949 30.8601 6.11856 30.8601 6.44233C30.8601 6.71324 30.9243 6.94616 31.0527 7.14108C31.1843 7.3327 31.3522 7.49292 31.5563 7.62177C31.7604 7.74732 31.9743 7.85136 32.1981 7.934C32.4219 8.01324 32.6276 8.07766 32.8152 8.12728L33.8422 8.40475C34.1056 8.47414 34.3985 8.56997 34.7211 8.69215C35.0469 8.81441 35.358 8.98125 35.6543 9.19267C35.9537 9.40083 36.2006 9.66846 36.3948 9.99555C36.589 10.3226 36.6861 10.724 36.6861 11.1997C36.6861 11.7482 36.5429 12.2437 36.2566 12.6864C35.9735 13.1292 35.5588 13.481 35.0124 13.7419C34.4693 14.003 33.8093 14.1335 33.0325 14.1335C32.3084 14.1335 31.6813 14.0162 31.1514 13.7816C30.6248 13.547 30.2101 13.2199 29.9072 12.8004C29.6076 12.3809 29.4382 11.8935 29.3986 11.3385H30.6626C30.6955 11.7217 30.8239 12.0389 31.0477 12.29C31.2748 12.5378 31.5612 12.7228 31.9068 12.845C32.2557 12.9639 32.631 13.0234 33.0325 13.0234C33.4999 13.0234 33.9196 12.9474 34.2916 12.7955C34.6635 12.6402 34.9581 12.4254 35.1753 12.1512C35.3926 11.8737 35.5012 11.5499 35.5012 11.1799C35.5012 10.8429 35.4074 10.5687 35.2198 10.3573C35.0322 10.1458 34.7853 9.97408 34.4792 9.84189C34.173 9.70971 33.8422 9.59411 33.4868 9.49503L32.2426 9.13817C31.4526 8.91024 30.8272 8.58485 30.3664 8.16194C29.9056 7.73905 29.6752 7.18568 29.6752 6.5018C29.6752 5.93355 29.8282 5.43799 30.1344 5.01511C30.4437 4.58892 30.8585 4.25855 31.3785 4.02398C31.9019 3.78611 32.4861 3.66718 33.1312 3.66718C33.783 3.66718 34.3623 3.78446 34.8692 4.01903C35.3761 4.25029 35.7777 4.56745 36.0739 4.97051C36.3734 5.37357 36.5314 5.83114 36.5479 6.34322H35.3629ZM2.82979 20.8621V31.0112H0.998047V20.8621H2.82979ZM13.1229 20.8621V31.0112H11.4935L6.72903 24.0981H6.6451V31.0112H4.81335V20.8621H6.45254L11.2121 27.7802H11.301V20.8621H13.1229ZM21.8927 24.1031C21.8104 23.8355 21.6969 23.596 21.5521 23.3845C21.4105 23.1698 21.2393 22.9864 21.0386 22.8344C20.8411 22.6825 20.614 22.5685 20.3572 22.4925C20.1005 22.4132 19.8207 22.3736 19.5179 22.3736C18.9748 22.3736 18.4909 22.5107 18.0663 22.7849C17.6417 23.0591 17.3077 23.4622 17.064 23.9941C16.8237 24.5227 16.7036 25.1669 16.7036 25.9268C16.7036 26.6932 16.8237 27.3425 17.064 27.8743C17.3043 28.4062 17.6384 28.8109 18.0663 29.0885C18.4942 29.3627 18.9912 29.4998 19.5574 29.4998C20.0709 29.4998 20.5152 29.4007 20.8904 29.2024C21.269 29.0042 21.5603 28.7234 21.7643 28.36C21.9684 27.9932 22.0704 27.5638 22.0704 27.0715L22.4852 27.1359H19.7401V25.6988H23.843V26.9179C23.843 27.7868 23.6587 28.5384 23.29 29.1727C22.9213 29.807 22.4145 30.296 21.7693 30.6396C21.1241 30.9798 20.3836 31.15 19.5475 31.15C18.616 31.15 17.7981 30.9402 17.0937 30.5206C16.3926 30.0977 15.8445 29.4981 15.4495 28.7218C15.0578 27.9421 14.862 27.017 14.862 25.9466C14.862 25.1273 14.9772 24.3955 15.2076 23.7513C15.4413 23.107 15.7671 22.5602 16.1852 22.1109C16.6032 21.6583 17.0937 21.3147 17.6566 21.0801C18.2193 20.8423 18.8316 20.7233 19.4932 20.7233C20.0527 20.7233 20.5745 20.8059 21.0583 20.9711C21.5422 21.133 21.9717 21.3643 22.347 21.6649C22.7255 21.9656 23.0366 22.3224 23.2801 22.7354C23.5237 23.1483 23.6833 23.6042 23.759 24.1031H21.8927ZM25.6142 31.0112V20.8621H32.1907V22.4033H27.446V25.1587H31.85V26.6998H27.446V29.4701H32.2302V31.0112H25.6142ZM42.3689 20.8621V31.0112H40.7397L35.9751 24.0981H35.8912V31.0112H34.0595V20.8621H35.6987L40.4582 27.7802H40.5471V20.8621H42.3689ZM46.1966 20.8621V31.0112H44.3648V20.8621H46.1966ZM48.1802 31.0112V20.8621H54.7567V22.4033H50.0119V25.1587H54.416V26.6998H50.0119V29.4701H54.7961V31.0112H48.1802ZM56.6254 31.0112V20.8621H60.4173C61.194 20.8621 61.8458 20.9976 62.3724 21.2684C62.9024 21.5394 63.3023 21.9193 63.5722 22.4083C63.8454 22.8939 63.982 23.4606 63.982 24.1081C63.982 24.7589 63.8437 25.3239 63.5673 25.8029C63.2941 26.2786 62.8909 26.647 62.3576 26.908C61.8244 27.1657 61.1694 27.2946 60.3926 27.2946H57.6919V25.7682H60.1457C60.6 25.7682 60.9719 25.7054 61.2615 25.5799C61.5512 25.451 61.7652 25.2644 61.9034 25.0199C62.0449 24.7721 62.1157 24.4682 62.1157 24.1081C62.1157 23.748 62.0449 23.4407 61.9034 23.1863C61.7618 22.9286 61.5463 22.7337 61.2566 22.6015C60.9669 22.4661 60.5933 22.3983 60.1358 22.3983H58.4571V31.0112H56.6254ZM61.8491 26.4124L64.3523 31.0112H62.3082L59.8495 26.4124H61.8491ZM67.4999 20.8621V31.0112H65.6681V20.8621H67.4999ZM70.7819 31.0112H68.8267L72.3865 20.8621H74.6478L78.2122 31.0112H76.2573L73.5567 22.9435H73.4777L70.7819 31.0112ZM70.8461 27.0319H76.1784V28.5086H70.8461V27.0319ZM4.42454 48.0674H0.998047V37.9183H4.49366C5.49758 37.9183 6.35997 38.1215 7.08081 38.5278C7.80495 38.9309 8.36124 39.5107 8.74961 40.2672C9.13798 41.0238 9.33225 41.9291 9.33225 42.983C9.33225 44.0402 9.13636 44.9487 8.74467 45.7086C8.3563 46.4684 7.79506 47.0515 7.06106 47.4579C6.33034 47.8642 5.4515 48.0674 4.42454 48.0674ZM2.82979 46.4767H4.33567C5.04006 46.4767 5.62759 46.3479 6.09829 46.0902C6.56897 45.8291 6.92282 45.4409 7.15981 44.9255C7.39679 44.4069 7.51529 43.7593 7.51529 42.983C7.51529 42.2065 7.39679 41.5624 7.15981 41.0503C6.92282 40.5349 6.57226 40.1499 6.10816 39.8956C5.64734 39.6379 5.07462 39.509 4.38998 39.509H2.82979V46.4767ZM11.0726 48.0674V37.9183H17.6491V39.4595H12.9044V42.2148H17.3084V43.756H12.9044V46.5262H17.6886V48.0674H11.0726ZM28.4618 40.7083C28.4157 40.2755 28.2215 39.9385 27.8792 39.6973C27.5402 39.4562 27.0991 39.3356 26.556 39.3356C26.1742 39.3356 25.8467 39.3934 25.5735 39.509C25.3003 39.6247 25.0913 39.7816 24.9464 39.9799C24.8016 40.1781 24.7275 40.4044 24.7243 40.6588C24.7243 40.8702 24.772 41.0535 24.8674 41.2088C24.9662 41.3641 25.0995 41.4962 25.2674 41.6053C25.4352 41.711 25.6212 41.8002 25.8253 41.8729C26.0294 41.9456 26.2351 42.0067 26.4424 42.0562L27.3904 42.2941C27.7722 42.3833 28.1392 42.5039 28.4914 42.6559C28.8469 42.8078 29.1645 42.9995 29.4444 43.2308C29.7274 43.462 29.9512 43.7411 30.1158 44.0682C30.2803 44.3953 30.3627 44.7785 30.3627 45.218C30.3627 45.8126 30.2113 46.3362 29.9084 46.7889C29.6056 47.2382 29.1678 47.59 28.5951 47.8445C28.0257 48.0955 27.3361 48.2211 26.5264 48.2211C25.7397 48.2211 25.0567 48.0988 24.4774 47.8543C23.9014 47.6099 23.4504 47.2531 23.1245 46.784C22.802 46.3148 22.6276 45.7432 22.6012 45.0693H24.4034C24.4297 45.4228 24.5383 45.7168 24.7292 45.9514C24.9201 46.186 25.1687 46.361 25.4748 46.4767C25.7841 46.5923 26.1298 46.6501 26.5116 46.6501C26.9098 46.6501 27.2587 46.5907 27.5583 46.4717C27.8611 46.3495 28.0981 46.181 28.2693 45.9663C28.4404 45.7482 28.5277 45.4938 28.5309 45.2031C28.5277 44.9388 28.4503 44.7207 28.2989 44.5489C28.1475 44.3738 27.9351 44.2285 27.6619 44.1128C27.3921 43.9939 27.0761 43.8882 26.714 43.7957L25.5636 43.4983C24.7309 43.2836 24.0725 42.9582 23.5887 42.5221C23.1081 42.0826 22.8679 41.4996 22.8679 40.7727C22.8679 40.1748 23.0292 39.6511 23.3517 39.2018C23.6776 38.7525 24.1203 38.4039 24.6798 38.1562C25.2394 37.905 25.873 37.7795 26.5807 37.7795C27.2983 37.7795 27.9269 37.905 28.4667 38.1562C29.0099 38.4039 29.4361 38.7492 29.7455 39.1919C30.0549 39.6313 30.2145 40.1368 30.2244 40.7083H28.4618ZM41.0309 42.9928C41.0309 44.0864 40.8269 45.0231 40.4187 45.8027C40.0138 46.5791 39.4609 47.1738 38.7598 47.5868C38.0619 47.9997 37.2704 48.2062 36.385 48.2062C35.4995 48.2062 34.7063 47.9997 34.0052 47.5868C33.3074 47.1704 32.7544 46.5742 32.3462 45.7977C31.9413 45.0181 31.739 44.0831 31.739 42.9928C31.739 41.8993 31.9413 40.9644 32.3462 40.1879C32.7544 39.4083 33.3074 38.812 34.0052 38.399C34.7063 37.986 35.4995 37.7795 36.385 37.7795C37.2704 37.7795 38.0619 37.986 38.7598 38.399C39.4609 38.812 40.0138 39.4083 40.4187 40.1879C40.8269 40.9644 41.0309 41.8993 41.0309 42.9928ZM39.1894 42.9928C39.1894 42.223 39.0692 41.5739 38.8289 41.0453C38.5919 40.5134 38.2628 40.112 37.8414 39.8411C37.4201 39.5669 36.9346 39.4298 36.385 39.4298C35.8352 39.4298 35.3498 39.5669 34.9284 39.8411C34.5071 40.112 34.1763 40.5134 33.936 41.0453C33.699 41.5739 33.5806 42.223 33.5806 42.9928C33.5806 43.7626 33.699 44.4134 33.936 44.9454C34.1763 45.474 34.5071 45.8754 34.9284 46.1496C35.3498 46.4205 35.8352 46.5559 36.385 46.5559C36.9346 46.5559 37.4201 46.4205 37.8414 46.1496C38.2628 45.8754 38.5919 45.474 38.8289 44.9454C39.0692 44.4134 39.1894 43.7626 39.1894 42.9928ZM42.7627 48.0674V37.9183H49.2405V39.4595H44.5945V42.2148H48.7961V43.756H44.5945V48.0674H42.7627ZM50.4649 39.4595V37.9183H58.5325V39.4595H55.4071V48.0674H53.5902V39.4595H50.4649ZM62.2157 48.0674L59.362 37.9183H61.3319L63.1538 45.3765H63.2476L65.1929 37.9183H66.9851L68.9353 45.3815H69.0242L70.8461 37.9183H72.8161L69.9623 48.0674H68.1553L66.131 40.9462H66.052L64.0228 48.0674H62.2157ZM74.4343 48.0674H72.4791L76.0389 37.9183H78.3003L81.865 48.0674H79.91L77.209 39.9997H77.13L74.4343 48.0674ZM74.4985 44.0881H79.8305V45.5648H74.4985V44.0881ZM83.1966 48.0674V37.9183H86.9884C87.7655 37.9183 88.4174 38.0537 88.9442 38.3246C89.474 38.5956 89.8734 38.9755 90.1437 39.4644C90.4164 39.9501 90.5531 40.5167 90.5531 41.1642C90.5531 41.8151 90.4148 42.38 90.1383 42.8591C89.8657 43.3348 89.4625 43.7031 88.9287 43.9642C88.3958 44.2219 87.7407 44.3507 86.9637 44.3507H84.2633V42.8244H86.7173C87.1715 42.8244 87.543 42.7616 87.8327 42.636C88.1223 42.5072 88.3363 42.3206 88.4745 42.0761C88.6159 41.8283 88.687 41.5244 88.687 41.1642C88.687 40.8041 88.6159 40.4969 88.4745 40.2425C88.3332 39.9848 88.1177 39.7899 87.828 39.6577C87.5384 39.5223 87.1645 39.4545 86.7073 39.4545H85.0288V48.0674H83.1966ZM88.4205 43.4686L90.9239 48.0674H88.8793L86.4207 43.4686H88.4205ZM92.2393 48.0674V37.9183H98.8156V39.4595H94.0715V42.2148H98.475V43.756H94.0715V46.5262H98.8558V48.0674H92.2393Z" fill="#161616"/>
<path d="M27.806 58.9213H0.771484V69H27.806V58.9213Z" fill="#161616"/>
</svg>
