<svg width="116" height="42" viewBox="0 0 116 42" fill="none" xmlns="http://www.w3.org/2000/svg">
<path d="M34.916 33.6541L27.376 20.9806L34.916 8.3071L38.5508 20.9806L34.916 33.6541ZM18.1348 32.4174L8.66119 23.0283H23.7412L31.2812 35.7018L18.1348 32.4174ZM18.1348 9.50503L31.2428 6.22063L23.7028 18.8941H8.62281L18.1348 9.50503ZM37.3908 0L20.2612 4.44355L17.7092 8.80954L12.5668 8.77076L0 20.9806L12.5668 33.1905L17.7092 33.1517L20.2612 37.5177L37.3908 42L41.992 25.3466L39.4012 21.0194L41.992 16.6918L37.3908 0ZM76.2892 12.3258C74.008 12.3258 72.4612 13.2914 71.3012 15.0689H71.224V12.7894H67.2028V29.5583H71.3012V20.0533C71.3012 17.7738 72.732 16.1893 74.704 16.1893C76.56 16.1893 77.952 17.3101 77.952 19.2807V29.5971H82.0508V18.6235C82.0892 14.953 79.7692 12.3258 76.2892 12.3258ZM60.9772 22.4875C60.9772 24.7287 59.7012 26.2739 57.6132 26.2739C55.7188 26.2739 54.52 25.1923 54.52 23.2218V12.7894H50.4212V23.9944C50.4212 27.6649 52.5092 30.0608 56.26 30.0608C58.6188 30.0608 59.9332 29.1718 61.0548 27.6265H61.1708V29.5971H65.1148V12.7894H61.016V22.4875H60.9772ZM84.2548 12.7894H88.3532V29.5583H84.2548V12.7894ZM84.2548 7.57325H88.3532V10.9348H84.2548V7.57325ZM111.592 12.7894L109.156 20.3623C108.615 21.9079 108.189 24.0332 108.189 24.0332H108.073C108.073 24.0332 107.532 21.9079 106.991 20.3623L104.245 12.7894H99.8372L104.361 24.7287C105.328 27.2788 105.637 28.3604 105.637 29.2877C105.637 30.6787 104.903 31.5676 103.163 31.5676H101.577V35.0835H104.207C107.609 35.0835 108.808 33.7313 110.084 30.022L116 12.8278H111.592V12.7894ZM96.0092 24.6511V15.7644H98.6388V12.8278H96.0092V7.57325H91.9108V12.7894H89.5908V15.7257H91.9108V25.5784C91.9108 28.7469 94.308 29.5971 96.4732 29.5971C98.252 29.5971 98.716 29.5195 98.716 29.5195V26.2739H97.672C96.7052 26.3127 96.0092 25.8878 96.0092 24.6511Z" fill="#F2F2F2"/>
</svg>
