<svg width="100" height="105" viewBox="0 0 100 105" fill="none" xmlns="http://www.w3.org/2000/svg">
<mask id="mask0_249_1936" style="mask-type:luminance" maskUnits="userSpaceOnUse" x="23" y="15" width="51" height="45">
<path d="M65.303 48.0913C63.9986 48.0913 63.4769 47.3034 63.4769 47.3034C63.3899 46.9532 63.303 41.7443 63.2595 36.5792C63.216 31.1952 63.2595 25.855 63.5204 25.8112C65.0421 22.966 69.8247 17.2318 69.8247 17.2318C60.8682 19.0265 55.9987 24.9357 55.9987 24.9357C54.5639 23.7977 51.6074 23.9728 51.6074 23.9728C52.9987 24.7169 54.3465 26.9493 54.3465 28.7877V46.9094C54.3465 46.9094 51.3465 49.5795 49.0422 49.5795C47.6509 49.5795 46.8248 48.8354 46.3465 48.2226C46.0422 47.7849 45.9117 47.4347 45.9117 47.4347V25.0671C45.6074 25.2859 45.2161 25.461 44.8248 25.461C44.3465 25.461 43.8248 25.1984 43.477 24.498C43.2161 23.929 43.0422 23.1411 43.0422 21.9155C43.0422 17.8009 47.6943 15.0432 47.6943 15.0432C41.8248 16.619 36.3466 19.6831 29.0857 28.0873C21.8249 36.4916 23.2162 43.4076 23.2162 43.4076C23.2162 43.4076 25.1727 38.5927 29.9988 33.5589C32.3031 31.1952 33.9987 30.4073 35.1727 30.3635C36.477 30.3635 37.0857 31.3265 37.0857 32.2019V49.2294C37.0857 50.8927 35.9987 51.2866 34.9987 51.2429C34.1727 51.2429 33.39 50.9365 33.39 50.9365C38.3466 58.1589 50.1726 59.2094 50.1726 59.2094L55.39 53.6066L55.5204 53.6941L60.303 57.7649C68.9986 52.556 73.216 42.8824 73.216 42.8824C69.2595 47.1283 66.7812 48.0913 65.303 48.0913Z" fill="white"/>
</mask>
<g mask="url(#mask0_249_1936)">
<mask id="mask1_249_1936" style="mask-type:luminance" maskUnits="userSpaceOnUse" x="-22" y="-42" width="308" height="207">
<path d="M285.653 -41.5104H-21.1289V164.394H285.653V-41.5104Z" fill="white"/>
</mask>
<g mask="url(#mask1_249_1936)">
<path d="M73.6947 14.5184H22.5645V59.7789H73.6947V14.5184Z" fill="#F2F2F2"/>
</g>
</g>
<mask id="mask2_249_1936" style="mask-type:luminance" maskUnits="userSpaceOnUse" x="13" y="0" width="73" height="74">
<path d="M49.4804 2.13032C58.6978 2.13032 67.3934 5.76341 73.9151 12.4168C80.4368 19.0264 84.0455 27.8684 84.0455 37.2357C84.0455 46.6029 80.4368 55.4012 73.9151 62.0545C67.3934 68.6641 58.6978 72.341 49.4804 72.341C40.2631 72.341 31.5674 68.7079 25.0457 62.0545C18.524 55.4449 14.9153 46.6029 14.9153 37.2357C14.9153 27.8684 18.524 19.0702 25.0457 12.4168C31.5674 5.76341 40.2196 2.13032 49.4804 2.13032ZM49.4804 0.510742C29.4805 0.510742 13.3066 16.9253 13.3066 37.1919C13.3066 57.4584 29.4805 73.873 49.4369 73.873C69.3934 73.873 85.5673 57.4584 85.5673 37.1919C85.6107 16.9253 69.4369 0.510742 49.4804 0.510742Z" fill="white"/>
</mask>
<g mask="url(#mask2_249_1936)">
<mask id="mask3_249_1936" style="mask-type:luminance" maskUnits="userSpaceOnUse" x="-22" y="-42" width="308" height="207">
<path d="M285.655 -41.5104H-21.127V164.394H285.655V-41.5104Z" fill="white"/>
</mask>
<g mask="url(#mask3_249_1936)">
<path d="M86.0912 -0.0144043H12.7871V74.3984H86.0912V-0.0144043Z" fill="#F2F2F2"/>
</g>
</g>
<mask id="mask4_249_1936" style="mask-type:luminance" maskUnits="userSpaceOnUse" x="23" y="97" width="9" height="8">
<path d="M31.2176 104.163H23.4785V97.0286H31.0872V98.6044H25.5655V99.83H30.7828V101.318H25.5655V102.544H31.2176V104.163Z" fill="white"/>
</mask>
<g mask="url(#mask4_249_1936)">
<mask id="mask5_249_1936" style="mask-type:luminance" maskUnits="userSpaceOnUse" x="-22" y="-42" width="308" height="207">
<path d="M285.653 -41.511H-21.1289V164.394H285.653V-41.511Z" fill="white"/>
</mask>
<g mask="url(#mask5_249_1936)">
<path d="M31.6981 96.5469H22.959V104.732H31.6981V96.5469Z" fill="#F2F2F2"/>
</g>
</g>
<mask id="mask6_249_1936" style="mask-type:luminance" maskUnits="userSpaceOnUse" x="32" y="97" width="10" height="8">
<path d="M41.6949 104.163H38.608L34.4776 98.823H34.4341V104.163H32.3906V97.0283H35.5645L39.608 102.412H39.6515V97.0283H41.6949V104.163Z" fill="white"/>
</mask>
<g mask="url(#mask6_249_1936)">
<mask id="mask7_249_1936" style="mask-type:luminance" maskUnits="userSpaceOnUse" x="-22" y="-42" width="308" height="207">
<path d="M285.653 -41.5111H-21.1289V164.394H285.653V-41.5111Z" fill="white"/>
</mask>
<g mask="url(#mask7_249_1936)">
<path d="M42.2169 96.5469H31.8691V104.732H42.2169V96.5469Z" fill="#F2F2F2"/>
</g>
</g>
<mask id="mask8_249_1936" style="mask-type:luminance" maskUnits="userSpaceOnUse" x="43" y="97" width="10" height="8">
<path d="M47.7361 104.251C47.0839 104.251 46.5187 104.251 46.0404 104.207C45.5621 104.163 45.1708 104.12 44.823 104.032C44.4752 103.945 44.2143 103.813 43.9969 103.638C43.7795 103.463 43.6056 103.244 43.5187 102.982C43.3882 102.719 43.3448 102.413 43.3013 102.019C43.2578 101.668 43.2578 101.187 43.2578 100.705V100.53C43.2578 100.005 43.2578 99.5674 43.3013 99.2172C43.3448 98.8232 43.4317 98.5168 43.5187 98.2542C43.6491 97.9916 43.7795 97.7727 43.9969 97.6414C44.2143 97.4663 44.4752 97.335 44.823 97.2474C45.1708 97.1599 45.5621 97.1161 46.0404 97.0723C46.5187 97.0286 47.0839 97.0286 47.7361 97.0286H48.0404C48.6056 97.0286 49.0839 97.0286 49.4752 97.0723C49.8665 97.1161 50.2578 97.1599 50.5187 97.2037C50.823 97.2474 51.0404 97.335 51.2578 97.4663C51.4317 97.5538 51.6056 97.7289 51.6926 97.8602C51.823 98.0353 51.8665 98.2104 51.91 98.4731C51.9534 98.6919 51.9534 98.9983 51.9534 99.3047V99.5674H49.9534V99.4798C49.9534 99.3047 49.91 99.1734 49.8665 99.0859C49.823 98.9545 49.7361 98.867 49.5621 98.8232C49.4317 98.7357 49.2143 98.6919 48.9534 98.6919C48.6926 98.6481 48.3447 98.6481 47.91 98.6481H47.7361C47.3448 98.6481 46.9969 98.6481 46.7361 98.6481C46.4752 98.6481 46.2143 98.6919 46.0404 98.7357C45.8665 98.7795 45.6926 98.867 45.6056 98.9108C45.5187 98.9983 45.4317 99.1296 45.3448 99.261C45.3013 99.3923 45.2578 99.5674 45.2578 99.7862C45.2578 100.005 45.2143 100.268 45.2143 100.574V100.705C45.2143 101.012 45.2143 101.274 45.2578 101.45C45.2578 101.668 45.3013 101.844 45.3448 101.975C45.3882 102.106 45.4752 102.237 45.6056 102.325C45.6926 102.413 45.8665 102.456 46.0404 102.5C46.2143 102.544 46.4752 102.588 46.7361 102.588C46.9969 102.588 47.3448 102.588 47.7361 102.588H47.91C48.2143 102.588 48.5187 102.588 48.7361 102.588C48.9534 102.588 49.1708 102.544 49.3013 102.544C49.4752 102.5 49.6056 102.5 49.6926 102.456C49.7795 102.413 49.8665 102.369 49.91 102.281C49.9534 102.194 49.9969 102.15 49.9969 102.019C49.9969 101.931 50.0404 101.8 50.0404 101.712V101.493H47.3448V100.136H52.0404V101.712C52.0404 102.062 51.9969 102.369 51.9534 102.631C51.91 102.894 51.823 103.113 51.6926 103.288C51.5621 103.463 51.4317 103.638 51.2143 103.769C51.0404 103.901 50.7795 103.988 50.4752 104.076C50.1708 104.163 49.823 104.207 49.3882 104.251C48.9534 104.295 48.4752 104.295 47.91 104.295H47.7361V104.251Z" fill="white"/>
</mask>
<g mask="url(#mask8_249_1936)">
<mask id="mask9_249_1936" style="mask-type:luminance" maskUnits="userSpaceOnUse" x="-22" y="-42" width="308" height="207">
<path d="M285.651 -41.511H-21.1309V164.394H285.651V-41.511Z" fill="white"/>
</mask>
<g mask="url(#mask9_249_1936)">
<path d="M52.6513 96.5029H42.7383V104.776H52.6513V96.5029Z" fill="#F2F2F2"/>
</g>
</g>
<mask id="mask10_249_1936" style="mask-type:luminance" maskUnits="userSpaceOnUse" x="0" y="80" width="99" height="25">
<path d="M98.9997 80.6138H0V104.295H98.9997V80.6138Z" fill="white"/>
</mask>
<g mask="url(#mask10_249_1936)">
<mask id="mask11_249_1936" style="mask-type:luminance" maskUnits="userSpaceOnUse" x="-22" y="-42" width="308" height="207">
<path d="M285.653 -41.5111H-21.1289V164.394H285.653V-41.5111Z" fill="white"/>
</mask>
<g mask="url(#mask11_249_1936)">
<mask id="mask12_249_1936" style="mask-type:luminance" maskUnits="userSpaceOnUse" x="57" y="97" width="19" height="8">
<path d="M75.7864 97.072H57.1777V104.294H75.7864V97.072Z" fill="white"/>
</mask>
<g mask="url(#mask12_249_1936)">
<mask id="mask13_249_1936" style="mask-type:luminance" maskUnits="userSpaceOnUse" x="57" y="97" width="10" height="8">
<path d="M66.4361 104.163H63.3492L59.2622 98.8666H59.2187V104.163H57.2188V97.1157H60.3492L64.3926 102.412H64.4361V97.1157H66.4361V104.163Z" fill="white"/>
</mask>
<g mask="url(#mask13_249_1936)">
<mask id="mask14_249_1936" style="mask-type:luminance" maskUnits="userSpaceOnUse" x="0" y="80" width="100" height="25">
<path d="M99.0016 80.5698H0.00195312V104.251H99.0016V80.5698Z" fill="white"/>
</mask>
<g mask="url(#mask14_249_1936)">
<path d="M66.9601 96.5903H56.6992V104.688H66.9601V96.5903Z" fill="#F2F2F2"/>
</g>
</g>
</g>
<mask id="mask15_249_1936" style="mask-type:luminance" maskUnits="userSpaceOnUse" x="57" y="97" width="19" height="8">
<path d="M75.7864 97.072H57.1777V104.294H75.7864V97.072Z" fill="white"/>
</mask>
<g mask="url(#mask15_249_1936)">
<mask id="mask16_249_1936" style="mask-type:luminance" maskUnits="userSpaceOnUse" x="68" y="97" width="8" height="8">
<path d="M75.742 104.163H68.0898V97.1157H75.6116V98.6478H70.1333V99.8734H75.3507V101.362H70.1333V102.587H75.742V104.163Z" fill="white"/>
</mask>
<g mask="url(#mask16_249_1936)">
<mask id="mask17_249_1936" style="mask-type:luminance" maskUnits="userSpaceOnUse" x="0" y="80" width="100" height="25">
<path d="M99.0016 80.5698H0.00195312V104.251H99.0016V80.5698Z" fill="white"/>
</mask>
<g mask="url(#mask17_249_1936)">
<path d="M76.262 96.5903H67.5664V104.688H76.262V96.5903Z" fill="#F2F2F2"/>
</g>
</g>
</g>
</g>
</g>
<mask id="mask18_249_1936" style="mask-type:luminance" maskUnits="userSpaceOnUse" x="0" y="80" width="16" height="14">
<path d="M7.4362 93.2202C6.4362 93.2202 5.56664 93.1764 4.78404 93.1326C4.04491 93.0889 3.39274 93.0013 2.82752 92.87C2.26231 92.7387 1.82752 92.5636 1.4797 92.3447C1.13187 92.1259 0.827528 91.8195 0.610137 91.5131C0.392747 91.1629 0.262312 90.7689 0.175356 90.2874C0.0884 89.8059 0.0449219 89.2807 0.0449219 88.6679V80.6138H3.69708V87.486C3.69708 87.9237 3.69708 88.2739 3.74056 88.5803C3.78404 88.8867 3.82752 89.1494 3.91447 89.3682C4.00143 89.5871 4.13186 89.7622 4.30578 89.8935C4.47969 90.0248 4.69708 90.1123 5.00143 90.1999C5.2623 90.2874 5.61012 90.3312 6.0449 90.3312C6.4362 90.375 6.95794 90.375 7.52316 90.375H7.8275C8.39272 90.375 8.87098 90.375 9.30576 90.3312C9.69706 90.2874 10.0449 90.2437 10.3492 90.1999C10.6101 90.1123 10.871 90.0248 11.0449 89.8935C11.2188 89.7622 11.3492 89.5871 11.4362 89.3682C11.5231 89.1494 11.5666 88.8867 11.6101 88.5803C11.6536 88.2739 11.6536 87.9237 11.6536 87.486V80.6138H15.3057V88.6679C15.3057 89.2807 15.2623 89.8059 15.1753 90.2874C15.0883 90.7689 14.9579 91.1629 14.7405 91.5131C14.5231 91.8632 14.2623 92.1259 13.871 92.3447C13.5231 92.5636 13.0449 92.7387 12.5231 92.87C11.9579 93.0013 11.3058 93.0889 10.5666 93.1326C9.78402 93.1764 8.91446 93.2202 7.91446 93.2202H7.4362Z" fill="white"/>
</mask>
<g mask="url(#mask18_249_1936)">
<mask id="mask19_249_1936" style="mask-type:luminance" maskUnits="userSpaceOnUse" x="-22" y="-42" width="308" height="207">
<path d="M285.653 -41.511H-21.1289V164.394H285.653V-41.511Z" fill="white"/>
</mask>
<g mask="url(#mask19_249_1936)">
<path d="M15.7842 80.0884H-0.476562V93.7453H15.7842V80.0884Z" fill="#F2F2F2"/>
</g>
</g>
<mask id="mask20_249_1936" style="mask-type:luminance" maskUnits="userSpaceOnUse" x="17" y="80" width="18" height="14">
<path d="M34.001 93.0889H28.5663L21.3924 83.7654H21.3054V93.0889H17.7402V80.6138H23.262L30.3924 89.9373H30.4358V80.6138H34.001V93.0889Z" fill="white"/>
</mask>
<g mask="url(#mask20_249_1936)">
<mask id="mask21_249_1936" style="mask-type:luminance" maskUnits="userSpaceOnUse" x="-22" y="-42" width="308" height="207">
<path d="M285.653 -41.511H-21.1289V164.394H285.653V-41.511Z" fill="white"/>
</mask>
<g mask="url(#mask21_249_1936)">
<path d="M34.523 80.0884H17.2188V93.614H34.523V80.0884Z" fill="#F2F2F2"/>
</g>
</g>
<mask id="mask22_249_1936" style="mask-type:luminance" maskUnits="userSpaceOnUse" x="36" y="80" width="16" height="14">
<path d="M51.2132 93.0892H47.6045V92.0824C47.6045 91.7322 47.6045 91.4258 47.561 91.1194C47.5175 90.8568 47.4741 90.6379 47.3871 90.4628C47.3001 90.2878 47.1697 90.1127 46.9958 90.0251C46.8219 89.8938 46.6045 89.85 46.3002 89.7625C46.0393 89.7187 45.6915 89.6749 45.2567 89.6312C44.8654 89.6312 44.3436 89.5874 43.7784 89.5874H40.1263V93.0454H36.5176V80.5703H46.1697C47.1697 80.5703 47.9958 80.6141 48.648 80.7454C49.3001 80.8767 49.8219 81.0956 50.1697 81.3582C50.561 81.6646 50.8219 82.0586 50.9523 82.5401C51.0827 83.0216 51.1697 83.6344 51.1697 84.3347V84.7725C51.1697 85.2539 51.1262 85.6917 51.0393 86.0418C50.9523 86.392 50.8219 86.7422 50.648 87.0048C50.4741 87.2675 50.2567 87.4863 49.9958 87.6614C49.7349 87.8365 49.3871 87.9678 48.9958 88.0554V88.1429C49.4306 88.2305 49.7784 88.318 50.0827 88.4056C50.3436 88.5369 50.561 88.6682 50.7349 88.887C50.9088 89.1059 50.9958 89.4123 51.0393 89.7625C51.0827 90.1127 51.1262 90.5504 51.1262 91.1194V93.0892H51.2132ZM44.6915 86.9173C45.3002 86.9173 45.8219 86.9173 46.2132 86.8735C46.6045 86.8298 46.8654 86.7422 47.0828 86.6109C47.2567 86.4796 47.3871 86.3045 47.4741 86.0856C47.5175 85.8668 47.561 85.5604 47.561 85.2102V84.9913C47.561 84.6411 47.5175 84.3347 47.4741 84.1159C47.4306 83.897 47.3001 83.7219 47.0828 83.6344C46.8654 83.5031 46.6045 83.4593 46.2132 83.4155C45.8219 83.3717 45.3436 83.3717 44.7349 83.3717H40.1697V86.9173H44.6915V86.9173Z" fill="white"/>
</mask>
<g mask="url(#mask22_249_1936)">
<mask id="mask23_249_1936" style="mask-type:luminance" maskUnits="userSpaceOnUse" x="-22" y="-42" width="308" height="207">
<path d="M285.651 -41.5105H-21.1309V164.394H285.651V-41.5105Z" fill="white"/>
</mask>
<g mask="url(#mask23_249_1936)">
<path d="M51.7386 80.0889H36.043V93.6145H51.7386V80.0889Z" fill="#F2F2F2"/>
</g>
</g>
<mask id="mask24_249_1936" style="mask-type:luminance" maskUnits="userSpaceOnUse" x="53" y="80" width="15" height="14">
<path d="M67.0861 93.0889H53.5645V80.6138H66.8688V83.3714H57.2166V85.4725H66.347V88.0988H57.2166V90.2437H67.0861V93.0889Z" fill="white"/>
</mask>
<g mask="url(#mask24_249_1936)">
<mask id="mask25_249_1936" style="mask-type:luminance" maskUnits="userSpaceOnUse" x="-22" y="-42" width="308" height="207">
<path d="M285.653 -41.5111H-21.1289V164.394H285.653V-41.5111Z" fill="white"/>
</mask>
<g mask="url(#mask25_249_1936)">
<path d="M67.6115 80.0884H53.0898V93.614H67.6115V80.0884Z" fill="#F2F2F2"/>
</g>
</g>
<mask id="mask26_249_1936" style="mask-type:luminance" maskUnits="userSpaceOnUse" x="67" y="80" width="19" height="14">
<path d="M85.6957 93.0889H81.7392L80.6087 90.8565H72.8696L71.7392 93.0889H67.8262L74.4783 80.6138H78.9566L85.6957 93.0889ZM79.3044 88.2301L76.7827 83.1963H76.6957L74.174 88.2301H79.3044Z" fill="white"/>
</mask>
<g mask="url(#mask26_249_1936)">
<mask id="mask27_249_1936" style="mask-type:luminance" maskUnits="userSpaceOnUse" x="-22" y="-42" width="308" height="207">
<path d="M285.653 -41.511H-21.1289V164.394H285.653V-41.511Z" fill="white"/>
</mask>
<g mask="url(#mask27_249_1936)">
<path d="M86.2172 80.0884H67.3477V93.614H86.2172V80.0884Z" fill="#F2F2F2"/>
</g>
</g>
<mask id="mask28_249_1936" style="mask-type:luminance" maskUnits="userSpaceOnUse" x="87" y="80" width="13" height="14">
<path d="M99.0014 93.0889H87.0449V80.6138H90.6971V90.1999H99.0014V93.0889Z" fill="white"/>
</mask>
<g mask="url(#mask28_249_1936)">
<mask id="mask29_249_1936" style="mask-type:luminance" maskUnits="userSpaceOnUse" x="-22" y="-42" width="308" height="207">
<path d="M285.653 -41.511H-21.1289V164.394H285.653V-41.511Z" fill="white"/>
</mask>
<g mask="url(#mask29_249_1936)">
<path d="M99.4799 80.0884H86.5234V93.614H99.4799V80.0884Z" fill="#F2F2F2"/>
</g>
</g>
<mask id="mask30_249_1936" style="mask-type:luminance" maskUnits="userSpaceOnUse" x="53" y="97" width="3" height="8">
<path d="M55.6514 97.116H53.5645V104.207H55.6514V97.116Z" fill="white"/>
</mask>
<g mask="url(#mask30_249_1936)">
<mask id="mask31_249_1936" style="mask-type:luminance" maskUnits="userSpaceOnUse" x="-22" y="-42" width="308" height="207">
<path d="M285.653 -41.5111H-21.1289V164.394H285.653V-41.5111Z" fill="white"/>
</mask>
<g mask="url(#mask31_249_1936)">
<path d="M56.1319 96.5903H53.0449V104.688H56.1319V96.5903Z" fill="#F2F2F2"/>
</g>
</g>
</svg>
